<svg width="853" height="700" viewBox="0 0 853 700" fill="none" xmlns="http://www.w3.org/2000/svg">
<g id="heist" clip-path="url(#clip0_1_2)">
<g id="Outer">
<line id="Line 1" x1="60.5" y1="124" x2="60.5" y2="634" stroke="#BBCCFF"/>
<line id="Line 2" x1="60" y1="123.5" x2="781" y2="123.5" stroke="#BBCCFF"/>
<line id="Line 3" x1="780.5" y1="124" x2="780.5" y2="634" stroke="#BBCCFF"/>
<line id="Line 4" x1="781" y1="634.5" x2="60" y2="634.5" stroke="#BBCCFF"/>
<line id="Line 5" x1="62" y1="124" x2="62" y2="174" stroke="#BBCCFF" stroke-width="4"/>
<line id="Line 10" x1="90" y1="126" x2="60" y2="126" stroke="#BBCCFF" stroke-width="4"/>
<line id="Line 11" x1="325" y1="126" x2="190" y2="126" stroke="#BBCCFF" stroke-width="4"/>
<line id="Line 24" x1="430" y1="126" x2="403" y2="126" stroke="#BBCCFF" stroke-width="4"/>
<line id="Line 25" x1="542" y1="126" x2="515" y2="126" stroke="#BBCCFF" stroke-width="4"/>
<line id="Line 26" x1="780" y1="126" x2="627" y2="126" stroke="#BBCCFF" stroke-width="4"/>
<line id="Line 19" x1="308" y1="444" x2="308" y2="124" stroke="#BBCCFF" stroke-width="4"/>
<line id="Line 21" x1="310" y1="442" x2="425" y2="442" stroke="#BBCCFF" stroke-width="4"/>
<line id="Line 22" x1="476" y1="442" x2="776" y2="442" stroke="#BBCCFF" stroke-width="4"/>
<line id="Line 23" x1="542" y1="634" x2="542" y2="494" stroke="#BBCCFF" stroke-width="4"/>
<line id="Line 20" x1="308" y1="634" x2="308" y2="494" stroke="#BBCCFF" stroke-width="4"/>
<line id="Line 13" x1="778" y1="124" x2="778" y2="264" stroke="#BBCCFF" stroke-width="4"/>
<line id="Line 14" x1="778" y1="364" x2="778" y2="504" stroke="#BBCCFF" stroke-width="4"/>
<line id="Line 15" x1="777.999" y1="603.933" x2="778.999" y2="633.933" stroke="#BBCCFF" stroke-width="4"/>
<line id="Line 16" x1="668" y1="632" x2="781" y2="632" stroke="#BBCCFF" stroke-width="4"/>
<line id="Line 17" x1="280" y1="632" x2="570" y2="632" stroke="#BBCCFF" stroke-width="4"/>
<line id="Line 18" x1="60" y1="632" x2="182" y2="632" stroke="#BBCCFF" stroke-width="4"/>
<line id="Line 6" x1="62" y1="244" x2="62" y2="294" stroke="#BBCCFF" stroke-width="4"/>
<line id="Line 7" x1="62" y1="349" x2="62" y2="399" stroke="#BBCCFF" stroke-width="4"/>
<line id="Line 8" x1="62" y1="454" x2="62" y2="504" stroke="#BBCCFF" stroke-width="4"/>
<line id="Line 9" x1="62" y1="559" x2="62" y2="634" stroke="#BBCCFF" stroke-width="4"/>
</g>
<g id="Room1">
<path id="Ellipse 1" d="M90 124C90 130.566 91.2933 137.068 93.806 143.134C96.3188 149.2 100.002 154.712 104.645 159.355C109.288 163.998 114.8 167.681 120.866 170.194C126.932 172.707 133.434 174 140 174L140 124L90 124Z" stroke="#BBCCFF" stroke-dasharray="2 2"/>
<path id="Ellipse 3" d="M140 174C146.566 174 153.068 172.707 159.134 170.194C165.2 167.681 170.712 163.998 175.355 159.355C179.998 154.712 183.681 149.2 186.194 143.134C188.707 137.068 190 130.566 190 124L140 124L140 174Z" stroke="#BBCCFF" stroke-dasharray="2 2"/>
<path id="Ellipse 2" d="M310 444C303.434 444 296.932 445.293 290.866 447.806C284.8 450.319 279.288 454.002 274.645 458.645C270.002 463.288 266.319 468.8 263.806 474.866C261.293 480.932 260 487.434 260 494L310 494L310 444Z" stroke="#BBCCFF" stroke-dasharray="2 2"/>
<path id="Vector 8" d="M260 263.943L260 234.029C260 234.029 286 232.633 286 249.185C286 265.738 260 263.943 260 263.943Z" stroke="#BBCCFF" stroke-width="2"/>
<path id="Vector 11" d="M260 383.943L260 354.029C260 354.029 286 352.633 286 369.185C286 385.738 260 383.943 260 383.943Z" stroke="#BBCCFF" stroke-width="2"/>
<path id="Vector 9" d="M260 223.943L260 194.029C260 194.029 286 192.633 286 209.185C286 225.738 260 223.943 260 223.943Z" stroke="#BBCCFF" stroke-width="2"/>
<path id="Vector 12" d="M260 343.943L260 314.029C260 314.029 286 312.633 286 329.185C286 345.738 260 343.943 260 343.943Z" stroke="#BBCCFF" stroke-width="2"/>
<path id="Vector 14" d="M125 444.057L125 473.971C125 473.971 98.9998 475.367 98.9998 458.815C98.9998 442.262 125 444.057 125 444.057Z" stroke="#BBCCFF" stroke-width="2"/>
<path id="Vector 16" d="M124 534.057L124 563.971C124 563.971 98 565.367 98 548.815C98 532.262 124 534.057 124 534.057Z" stroke="#BBCCFF" stroke-width="2"/>
<path id="Vector 15" d="M125 489.057L125 518.971C125 518.971 99 520.367 99 503.815C99 487.262 125 489.057 125 489.057Z" stroke="#BBCCFF" stroke-width="2"/>
<path id="Vector 17" d="M124 579.057L124 608.971C124 608.971 98.0002 610.367 98.0002 593.815C98.0002 577.262 124 579.057 124 579.057Z" stroke="#BBCCFF" stroke-width="2"/>
<path id="Vector 10" d="M260 183.943L260 154.029C260 154.029 286 152.633 286 169.185C286 185.738 260 183.943 260 183.943Z" stroke="#BBCCFF" stroke-width="2"/>
<path id="Vector 13" d="M260 303.943L260 274.029C260 274.029 286 272.633 286 289.185C286 305.738 260 303.943 260 303.943Z" stroke="#BBCCFF" stroke-width="2"/>
<rect id="Rectangle 4" x="143" y="425" width="38" height="205" stroke="#BBCCFF" stroke-width="2"/>
<rect id="Rectangle 5" x="61" y="350" width="120" height="38" stroke="#BBCCFF" stroke-width="2"/>
</g>
<g id="Room2">
<path id="Ellipse 4" d="M540 494C546.566 494 553.068 492.707 559.134 490.194C565.2 487.681 570.712 483.998 575.355 479.355C579.998 474.712 583.681 469.2 586.194 463.134C588.707 457.068 590 450.566 590 444L540 444L540 494Z" stroke="#BBCCFF" stroke-dasharray="2 2"/>
<path id="Vector 1" d="M732 579.943L732 550.029C732 550.029 758 548.633 758 565.185C758 581.738 732 579.943 732 579.943Z" stroke="#BBCCFF" stroke-width="2"/>
<path id="Vector 5" d="M501 613.943L501 584.029C501 584.029 527 582.633 527 599.185C527 615.738 501 613.943 501 613.943Z" stroke="#BBCCFF" stroke-width="2"/>
<path id="Vector 6" d="M501 573.943L501 544.029C501 544.029 527 542.633 527 559.185C527 575.738 501 573.943 501 573.943Z" stroke="#BBCCFF" stroke-width="2"/>
<path id="Vector 7" d="M501 533.943L501 504.029C501 504.029 527 502.633 527 519.185C527 535.738 501 533.943 501 533.943Z" stroke="#BBCCFF" stroke-width="2"/>
<path id="Vector 4" d="M336.058 583L365.972 583C365.972 583 367.368 609 350.815 609C334.263 609 336.058 583 336.058 583Z" stroke="#BBCCFF" stroke-width="2"/>
<path id="Vector 2" d="M589.976 535.997L561.234 544.288C561.234 544.288 552.686 519.693 568.591 515.106C584.495 510.518 589.976 535.997 589.976 535.997Z" stroke="#BBCCFF" stroke-width="2"/>
<path id="Vector 3" d="M563.633 584.021L591.442 595.043C591.442 595.043 583.16 619.728 567.772 613.629C552.384 607.53 563.633 584.021 563.633 584.021Z" stroke="#BBCCFF" stroke-width="2"/>
<rect id="Rectangle 1" x="669" y="525" width="51" height="81" stroke="#BBCCFF" stroke-width="2"/>
<rect id="Rectangle 2" x="392" y="515" width="51" height="81" transform="rotate(90 392 515)" stroke="#BBCCFF" stroke-width="2"/>
<rect id="Rectangle 3" x="456" y="518" width="23" height="81" stroke="#BBCCFF" stroke-width="2"/>
<g id="Plant">
<circle id="Ellipse 6" cx="740.083" cy="478.989" r="10.8816" stroke="#BBCCFF"/>
<path id="Vector 2_2" d="M741.368 472.085C741.368 472.085 751.749 448.183 758.578 467.608C765.407 487.032 745.461 481.103 745.461 481.103C745.461 481.103 768.618 483.827 753.355 493.786C738.092 503.744 741.368 485.612 741.368 485.612C741.368 485.612 740.083 504.029 725.287 490.967C710.491 477.906 734.935 481.103 734.935 481.103C734.935 481.103 709.207 476.144 725.287 464.193C741.368 452.243 741.368 472.085 741.368 472.085Z" stroke="#BBCCFF"/>
</g>
<circle id="Ellipse 7" cx="585" cy="565" r="14" stroke="#BBCCFF" stroke-width="2"/>
</g>
<g id="Room3">
<path id="Vector 18" d="M593.943 383L564.029 383C564.029 383 562.633 357 579.185 357C595.738 357 593.943 383 593.943 383Z" stroke="#BBCCFF" stroke-width="2"/>
<path id="Vector 22" d="M541.943 384L512.029 384C512.029 384 510.633 358 527.185 358C543.738 358 541.943 384 541.943 384Z" stroke="#BBCCFF" stroke-width="2"/>
<path id="Vector 20" d="M697.943 383L668.029 383C668.029 383 666.633 357 683.185 357C699.738 357 697.943 383 697.943 383Z" stroke="#BBCCFF" stroke-width="2"/>
<path id="Vector 19" d="M645.943 383L616.029 383C616.029 383 614.633 357 631.185 357C647.738 357 645.943 383 645.943 383Z" stroke="#BBCCFF" stroke-width="2"/>
<path id="Vector 21" d="M749.943 383L720.029 383C720.029 383 718.633 357 735.185 357C751.738 357 749.943 383 749.943 383Z" stroke="#BBCCFF" stroke-width="2"/>
<rect id="Rectangle 6" x="491" y="394" width="274" height="38" stroke="#BBCCFF" stroke-width="2"/>
<path id="Vector 8_2" d="M381.943 357L352.029 357C352.029 357 350.633 331 367.185 331C383.738 331 381.943 357 381.943 357Z" stroke="#BBCCFF" stroke-width="2"/>
<rect id="Rectangle 4_2" x="407" y="375" width="51" height="81" transform="rotate(90 407 375)" stroke="#BBCCFF" stroke-width="2"/>
<g id="Plant_2">
<circle id="Ellipse 6_2" cx="741.083" cy="252.99" r="10.8816" stroke="#BBCCFF"/>
<path id="Vector 2_3" d="M742.368 246.085C742.368 246.085 752.749 222.183 759.578 241.608C766.408 261.033 746.461 255.103 746.461 255.103C746.461 255.103 769.618 257.827 754.355 267.786C739.092 277.745 742.368 259.613 742.368 259.613C742.368 259.613 741.083 278.029 726.287 264.967C711.491 251.906 735.935 255.103 735.935 255.103C735.935 255.103 710.207 250.144 726.287 238.193C742.368 226.243 742.368 246.085 742.368 246.085Z" stroke="#BBCCFF"/>
</g>
<g id="Plant_3">
<circle id="Ellipse 6_3" cx="334.083" cy="282.99" r="10.8816" stroke="#BBCCFF"/>
<path id="Vector 2_4" d="M335.368 276.085C335.368 276.085 345.749 252.183 352.578 271.608C359.408 291.033 339.461 285.103 339.461 285.103C339.461 285.103 362.618 287.827 347.355 297.786C332.092 307.745 335.368 289.613 335.368 289.613C335.368 289.613 334.083 308.029 319.287 294.967C304.491 281.906 328.935 285.103 328.935 285.103C328.935 285.103 303.207 280.144 319.287 268.193C335.368 256.243 335.368 276.085 335.368 276.085Z" stroke="#BBCCFF"/>
</g>
<g id="Plant_4">
<circle id="Ellipse 6_4" cx="387.083" cy="157.99" r="10.8816" stroke="#BBCCFF"/>
<path id="Vector 2_5" d="M388.368 151.085C388.368 151.085 398.749 127.183 405.578 146.608C412.408 166.033 392.461 160.103 392.461 160.103C392.461 160.103 415.618 162.827 400.355 172.786C385.092 182.745 388.368 164.613 388.368 164.613C388.368 164.613 387.083 183.029 372.287 169.967C357.491 156.906 381.935 160.103 381.935 160.103C381.935 160.103 356.207 155.144 372.287 143.193C388.368 131.243 388.368 151.085 388.368 151.085Z" stroke="#BBCCFF"/>
</g>
<g id="Plant_5">
<circle id="Ellipse 6_5" cx="446.083" cy="218.99" r="10.8816" stroke="#BBCCFF"/>
<path id="Vector 2_6" d="M447.368 212.085C447.368 212.085 457.749 188.183 464.578 207.608C471.408 227.033 451.461 221.103 451.461 221.103C451.461 221.103 474.618 223.827 459.355 233.786C444.092 243.745 447.368 225.613 447.368 225.613C447.368 225.613 446.083 244.029 431.287 230.967C416.491 217.906 440.935 221.103 440.935 221.103C440.935 221.103 415.207 216.144 431.287 204.193C447.368 192.243 447.368 212.085 447.368 212.085Z" stroke="#BBCCFF"/>
</g>
<g id="Plant_6">
<circle id="Ellipse 6_6" cx="611.083" cy="151.99" r="10.8816" stroke="#BBCCFF"/>
<path id="Vector 2_7" d="M612.368 145.085C612.368 145.085 622.749 121.183 629.578 140.608C636.408 160.033 616.461 154.103 616.461 154.103C616.461 154.103 639.618 156.827 624.355 166.786C609.092 176.745 612.368 158.613 612.368 158.613C612.368 158.613 611.083 177.029 596.287 163.967C581.491 150.906 605.935 154.103 605.935 154.103C605.935 154.103 580.207 149.144 596.287 137.193C612.368 125.243 612.368 145.085 612.368 145.085Z" stroke="#BBCCFF"/>
</g>
<g id="Safe">
<rect id="Rectangle 4_3" x="714" y="136" width="51" height="81" stroke="#BBCCFF" stroke-width="2"/>
<path id="Vector 18_2" d="M702 168.61L713 163V190L702 184.74V168.61Z" stroke="#BBCCFF" stroke-width="2"/>
</g>
<path id="Ellipse 6_7" d="M367 294C373.566 294 380.068 292.707 386.134 290.194C392.2 287.681 397.712 283.998 402.355 279.355C406.998 274.712 410.681 269.2 413.194 263.134C415.707 257.068 417 250.566 417 244L367 244L367 294Z" stroke="#BBCCFF" stroke-dasharray="2 2"/>
<path id="Ellipse 7_2" d="M477 294C483.566 294 490.068 292.707 496.134 290.194C502.2 287.681 507.712 283.998 512.355 279.355C516.998 274.712 520.681 269.2 523.194 263.134C525.707 257.068 527 250.566 527 244L477 244L477 294Z" stroke="#BBCCFF" stroke-dasharray="2 2"/>
<path id="Ellipse 8" d="M588 294C594.566 294 601.068 292.707 607.134 290.194C613.2 287.681 618.712 283.998 623.355 279.355C627.998 274.712 631.681 269.2 634.194 263.134C636.707 257.068 638 250.566 638 244L588 244L588 294Z" stroke="#BBCCFF" stroke-dasharray="2 2"/>
<line id="Line 24_2" x1="418" y1="247" x2="418" y2="124" stroke="#BBCCFF" stroke-width="4"/>
<line id="Line 28" x1="529" y1="247" x2="529" y2="124" stroke="#BBCCFF" stroke-width="4"/>
<line id="Line 30" x1="640" y1="247" x2="640" y2="124" stroke="#BBCCFF" stroke-width="4"/>
<line id="Line 27" x1="307" y1="245" x2="367" y2="245" stroke="#BBCCFF" stroke-width="4"/>
<line id="Line 29" x1="420" y1="245" x2="478" y2="245" stroke="#BBCCFF" stroke-width="4"/>
<line id="Line 31" x1="531" y1="245" x2="589" y2="245" stroke="#BBCCFF" stroke-width="4"/>
<path id="Vector 8_3" d="M353.976 162.997L325.234 171.288C325.234 171.288 316.687 146.693 332.591 142.106C348.495 137.518 353.976 162.997 353.976 162.997Z" stroke="#BBCCFF" stroke-width="2"/>
<path id="Vector 23" d="M462.976 160.997L434.234 169.288C434.234 169.288 425.686 144.693 441.591 140.106C457.495 135.518 462.976 160.997 462.976 160.997Z" stroke="#BBCCFF" stroke-width="2"/>
<path id="Vector 9_2" d="M579.976 161.997L551.234 170.288C551.234 170.288 542.686 145.693 558.591 141.106C574.495 136.518 579.976 161.997 579.976 161.997Z" stroke="#BBCCFF" stroke-width="2"/>
<path id="Vector 10_2" d="M503.955 172.468L478.025 157.551C478.025 157.551 489.78 134.318 504.128 142.572C518.475 150.826 503.955 172.468 503.955 172.468Z" stroke="#BBCCFF" stroke-width="2"/>
<path id="Ellipse 5" d="M476 444C476 437.434 474.707 430.932 472.194 424.866C469.681 418.8 465.998 413.288 461.355 408.645C456.712 404.002 451.2 400.319 445.134 397.806C439.068 395.293 432.566 394 426 394L426 444H476Z" stroke="#BBCCFF" stroke-dasharray="2 2"/>
<path id="Vector 8_4" d="M326.633 198.021L354.442 209.043C354.442 209.043 346.16 233.728 330.772 227.629C315.384 221.53 326.633 198.021 326.633 198.021Z" stroke="#BBCCFF" stroke-width="2"/>
<path id="Vector 9_3" d="M550.633 192.021L578.442 203.043C578.442 203.043 570.16 227.728 554.772 221.629C539.384 215.53 550.633 192.021 550.633 192.021Z" stroke="#BBCCFF" stroke-width="2"/>
</g>
<g id="Paths">
<g id="Paths 1">
<path id="Vector 25" d="M223.952 192.999C224.503 193.026 224.972 192.6 224.999 192.048L225.434 183.059C225.461 182.507 225.035 182.038 224.484 182.012C223.932 181.985 223.463 182.411 223.437 182.962L223.05 190.953L215.059 190.566C214.507 190.539 214.038 190.965 214.012 191.516C213.985 192.068 214.411 192.537 214.962 192.563L223.952 192.999ZM159.005 70.0961C159.07 70.7756 159.137 71.45 159.204 72.1192L161.194 71.918C161.127 71.2518 161.061 70.5805 160.995 69.9039L159.005 70.0961ZM159.623 76.0729C159.771 77.4123 159.923 78.7303 160.08 80.0273L162.066 79.7872C161.91 78.4971 161.758 77.1859 161.611 75.8531L159.623 76.0729ZM160.578 83.963C160.755 85.3059 160.937 86.6254 161.124 87.9221L163.104 87.6366C162.918 86.348 162.737 85.0364 162.56 83.7012L160.578 83.963ZM161.712 91.8203C161.924 93.1683 162.142 94.4905 162.365 95.7878L164.336 95.4486C164.114 94.161 163.898 92.8482 163.687 91.5093L161.712 91.8203ZM163.066 99.6856C163.316 101.017 163.573 102.321 163.835 103.599L165.794 103.196C165.534 101.93 165.28 100.637 165.031 99.3161L163.066 99.6856ZM164.677 107.511C164.974 108.828 165.277 110.115 165.587 111.373L167.529 110.894C167.222 109.649 166.922 108.375 166.628 107.071L164.677 107.511ZM166.584 115.229C166.941 116.548 167.306 117.834 167.679 119.088L169.596 118.518C169.228 117.28 168.867 116.01 168.514 114.707L166.584 115.229ZM168.871 122.902C169.294 124.194 169.727 125.451 170.169 126.675L172.05 125.995C171.615 124.791 171.188 123.553 170.771 122.28L168.871 122.902ZM171.585 130.405C172.089 131.669 172.604 132.896 173.13 134.088L174.96 133.281C174.444 132.111 173.938 130.906 173.442 129.664L171.585 130.405ZM174.815 137.72C175.414 138.947 176.025 140.135 176.648 141.287L178.407 140.337C177.797 139.208 177.199 138.045 176.613 136.843L174.815 137.72ZM178.629 144.773C179.328 145.942 180.04 147.074 180.766 148.174L182.435 147.072C181.726 145.997 181.03 144.89 180.346 143.747L178.629 144.773ZM183.051 151.474C183.846 152.57 184.654 153.633 185.476 154.669L187.043 153.427C186.238 152.412 185.447 151.371 184.67 150.3L183.051 151.474ZM188.029 157.757C188.903 158.774 189.791 159.768 190.691 160.743L192.161 159.387C191.275 158.427 190.403 157.451 189.545 156.453L188.029 157.757ZM193.446 163.638C194.376 164.587 195.318 165.525 196.272 166.456L197.668 165.024C196.724 164.102 195.793 163.176 194.875 162.239L193.446 163.638ZM199.146 169.213C200.102 170.117 201.07 171.02 202.047 171.928L203.408 170.462C202.433 169.557 201.47 168.658 200.519 167.759L199.146 169.213ZM204.96 174.622C205.921 175.509 206.89 176.404 207.869 177.313L209.23 175.848C208.249 174.937 207.278 174.039 206.317 173.152L204.96 174.622ZM210.758 180.019C211.703 180.912 212.656 181.821 213.616 182.751L215.008 181.315C214.041 180.378 213.082 179.463 212.132 178.565L210.758 180.019ZM216.433 185.521C217.35 186.437 218.272 187.375 219.201 188.337L220.64 186.948C219.702 185.977 218.771 185.031 217.847 184.107L216.433 185.521ZM221.912 191.204C222.36 191.687 222.809 192.176 223.26 192.672L224.74 191.328C224.285 190.826 223.832 190.332 223.379 189.844L221.912 191.204Z" fill="#BBCCFF"/>
<path id="Vector 26" d="M208.384 302.788C208.819 303.128 209.447 303.051 209.788 302.616L215.334 295.529C215.675 295.094 215.598 294.465 215.163 294.125C214.728 293.785 214.1 293.861 213.759 294.296L208.829 300.596L202.529 295.666C202.094 295.325 201.465 295.402 201.125 295.837C200.785 296.272 200.861 296.9 201.296 297.241L208.384 302.788ZM169.813 177L168.985 177.56L169.813 177ZM131.51 65.1382C131.6 65.781 131.681 66.4333 131.757 67.096L133.744 66.87C133.667 66.1924 133.583 65.5232 133.491 64.8618L131.51 65.1382ZM132.131 71.0397C132.233 72.3252 132.324 73.6466 132.411 75.0091L134.407 74.8809C134.319 73.5139 134.228 72.1811 134.125 70.881L132.131 71.0397ZM132.661 78.999C132.743 80.2978 132.829 81.6318 132.928 83.0021L134.923 82.8587C134.825 81.497 134.738 80.1697 134.657 78.8734L132.661 78.999ZM133.245 86.9972C133.36 88.3002 133.49 89.6349 133.64 91.0028L135.628 90.7851C135.48 89.4329 135.351 88.1124 135.237 86.8217L133.245 86.9972ZM134.125 94.9934C134.299 96.2903 134.494 97.6156 134.713 98.9707L136.687 98.6518C136.472 97.3151 136.279 96.0073 136.107 94.727L134.125 94.9934ZM135.41 102.94C135.656 104.232 135.925 105.55 136.22 106.894L138.173 106.466C137.882 105.14 137.617 103.841 137.375 102.567L135.41 102.94ZM137.136 110.809C137.452 112.082 137.793 113.378 138.159 114.697L140.086 114.162C139.725 112.86 139.389 111.582 139.076 110.326L137.136 110.809ZM139.288 118.559C139.673 119.815 140.082 121.092 140.517 122.39L142.414 121.754C141.984 120.473 141.58 119.212 141.2 117.972L139.288 118.559ZM141.842 126.189C142.291 127.427 142.763 128.683 143.259 129.958L145.123 129.232C144.632 127.972 144.166 126.731 143.723 125.508L141.842 126.189ZM144.763 133.696C145.267 134.909 145.793 136.14 146.342 137.387L148.173 136.581C147.629 135.346 147.109 134.129 146.61 132.929L144.763 133.696ZM147.995 141.038C148.549 142.23 149.124 143.437 149.72 144.659L151.518 143.782C150.926 142.571 150.357 141.375 149.808 140.195L147.995 141.038ZM151.517 148.256C152.119 149.434 152.741 150.626 153.384 151.832L155.149 150.892C154.511 149.696 153.895 148.514 153.298 147.346L151.517 148.256ZM155.294 155.346C155.931 156.496 156.586 157.659 157.261 158.834L158.996 157.838C158.326 156.671 157.675 155.518 157.043 154.377L155.294 155.346ZM159.293 162.311C159.967 163.444 160.657 164.589 161.366 165.745L163.071 164.699C162.367 163.551 161.681 162.414 161.013 161.29L159.293 162.311ZM163.479 169.138C164.187 170.26 164.913 171.392 165.655 172.535L167.332 171.445C166.594 170.31 165.874 169.185 165.17 168.07L163.479 169.138ZM167.85 175.87C168.224 176.43 168.602 176.994 168.985 177.56L170.642 176.44C170.262 175.878 169.886 175.318 169.514 174.76L167.85 175.87ZM168.985 177.56C169.356 178.109 169.723 178.657 170.087 179.202L171.751 178.093C171.385 177.544 171.016 176.993 170.642 176.44L168.985 177.56ZM172.223 182.45C172.942 183.559 173.646 184.66 174.334 185.751L176.026 184.685C175.333 183.586 174.625 182.478 173.901 181.361L172.223 182.45ZM176.382 189.049C177.071 190.175 177.742 191.291 178.398 192.398L180.119 191.378C179.458 190.263 178.782 189.139 178.089 188.006L176.382 189.049ZM180.363 195.772C181.014 196.91 181.647 198.037 182.264 199.154L184.015 198.188C183.393 197.061 182.755 195.925 182.099 194.779L180.363 195.772ZM184.125 202.59C184.743 203.755 185.344 204.909 185.927 206.054L187.709 205.146C187.121 203.991 186.515 202.827 185.891 201.652L184.125 202.59ZM187.661 209.533C188.236 210.712 188.792 211.88 189.33 213.037L191.143 212.194C190.6 211.026 190.039 209.847 189.459 208.657L187.661 209.533ZM190.944 216.597C191.477 217.803 191.99 218.997 192.484 220.179L194.329 219.407C193.83 218.213 193.311 217.007 192.773 215.789L190.944 216.597ZM193.948 223.783C194.43 225.006 194.892 226.216 195.335 227.413L197.211 226.719C196.763 225.508 196.296 224.285 195.809 223.049L193.948 223.783ZM196.642 231.07C197.072 232.314 197.481 233.545 197.871 234.762L199.775 234.152C199.381 232.921 198.967 231.676 198.533 230.417L196.642 231.07ZM199.016 238.485C199.388 239.748 199.741 240.996 200.074 242.231L202.005 241.71C201.668 240.46 201.311 239.197 200.934 237.919L199.016 238.485ZM201.045 245.999C201.358 247.276 201.651 248.539 201.927 249.788L203.88 249.357C203.601 248.093 203.304 246.816 202.987 245.523L201.045 245.999ZM202.721 253.595C202.975 254.885 203.211 256.159 203.43 257.419L205.4 257.077C205.179 255.802 204.94 254.513 204.684 253.209L202.721 253.595ZM204.056 261.258C204.254 262.558 204.436 263.843 204.604 265.113L206.587 264.851C206.417 263.568 206.233 262.27 206.033 260.957L204.056 261.258ZM205.081 268.984C205.23 270.291 205.367 271.584 205.494 272.862L207.484 272.665C207.356 271.378 207.218 270.075 207.068 268.757L205.081 268.984ZM205.853 276.747C205.967 278.057 206.073 279.353 206.173 280.636L208.167 280.481C208.066 279.193 207.96 277.891 207.846 276.574L205.853 276.747ZM206.467 284.532C206.564 285.845 206.659 287.149 206.754 288.439L208.749 288.291C208.653 287.001 208.559 285.702 208.462 284.385L206.467 284.532ZM207.054 292.347C207.159 293.659 207.269 294.961 207.388 296.254L209.379 296.071C209.261 294.788 209.152 293.494 209.047 292.187L207.054 292.347ZM207.781 300.168C207.853 300.821 207.928 301.472 208.007 302.121L209.993 301.879C209.915 301.238 209.84 300.595 209.769 299.949L207.781 300.168Z" fill="#BBCCFF"/>
<path id="Vector 24" d="M129.053 312.062C129.229 312.586 129.797 312.866 130.32 312.69L138.847 309.809C139.37 309.632 139.651 309.065 139.474 308.542C139.297 308.018 138.73 307.738 138.207 307.914L130.627 310.475L128.067 302.896C127.89 302.372 127.323 302.091 126.8 302.268C126.276 302.445 125.995 303.012 126.172 303.536L129.053 312.062ZM105.638 72.1261C105.722 72.7841 105.808 73.4417 105.896 74.099L107.878 73.8334C107.791 73.1805 107.705 72.5273 107.622 71.8739L105.638 72.1261ZM106.45 78.039C106.643 79.3509 106.845 80.6616 107.054 81.9709L109.029 81.655C108.821 80.3536 108.621 79.0511 108.429 77.7476L106.45 78.039ZM107.706 85.8946C107.93 87.2011 108.162 88.5063 108.401 89.8101L110.368 89.4495C110.131 88.1527 109.9 86.8548 109.677 85.5557L107.706 85.8946ZM109.139 93.7173C109.391 95.0183 109.65 96.318 109.915 97.6163L111.874 97.2164C111.611 95.9241 111.353 94.6308 111.102 93.3363L109.139 93.7173ZM110.727 101.507C111.004 102.803 111.286 104.097 111.574 105.39L113.526 104.956C113.24 103.668 112.959 102.38 112.683 101.09L110.727 101.507ZM112.451 109.266C112.749 110.557 113.051 111.846 113.357 113.134L115.303 112.671C114.998 111.388 114.696 110.103 114.4 108.817L112.451 109.266ZM114.289 116.996C114.604 118.282 114.922 119.567 115.244 120.85L117.184 120.364C116.863 119.084 116.545 117.803 116.232 116.52L114.289 116.996ZM116.22 124.7C116.549 125.983 116.881 127.264 117.215 128.543L119.15 128.038C118.816 126.761 118.486 125.483 118.158 124.204L116.22 124.7ZM118.225 132.383C118.564 133.663 118.906 134.941 119.248 136.217L121.18 135.698C120.838 134.424 120.497 133.148 120.158 131.871L118.225 132.383ZM120.283 140.05C120.63 141.327 120.977 142.602 121.326 143.876L123.255 143.349C122.907 142.076 122.56 140.802 122.214 139.526L120.283 140.05ZM122.375 147.704C122.725 148.98 123.076 150.254 123.426 151.527L125.354 150.996C125.004 149.723 124.654 148.45 124.303 147.175L122.375 147.704ZM124.48 155.353C124.831 156.628 125.181 157.901 125.53 159.173L127.459 158.644C127.109 157.371 126.759 156.097 126.408 154.822L124.48 155.353ZM126.577 163C126.925 164.276 127.272 165.549 127.616 166.822L129.546 166.299C129.202 165.026 128.855 163.75 128.507 162.474L126.577 163ZM128.647 170.653C128.988 171.929 129.327 173.205 129.663 174.478L131.597 173.968C131.26 172.692 130.921 171.415 130.579 170.136L128.647 170.653ZM130.666 178.315C130.997 179.594 131.324 180.872 131.648 182.148L133.587 181.656C133.262 180.377 132.934 179.096 132.602 177.814L130.666 178.315ZM132.611 185.993C132.929 187.276 133.241 188.557 133.548 189.836L135.493 189.369C135.185 188.085 134.871 186.8 134.553 185.513L132.611 185.993ZM134.46 193.692C134.759 194.979 135.052 196.264 135.339 197.547L137.29 197.111C137.002 195.822 136.708 194.531 136.408 193.24L134.46 193.692ZM136.185 201.416C136.461 202.707 136.73 203.997 136.992 205.285L138.952 204.887C138.689 203.592 138.418 202.295 138.141 200.998L136.185 201.416ZM137.759 209.167C138.008 210.464 138.248 211.76 138.48 213.053L140.449 212.701C140.215 211.399 139.973 210.095 139.723 208.791L137.759 209.167ZM139.153 216.949C139.369 218.252 139.576 219.553 139.772 220.852L141.75 220.553C141.552 219.244 141.343 217.934 141.126 216.622L139.153 216.949ZM140.335 224.761C140.513 226.07 140.68 227.376 140.836 228.681L142.822 228.443C142.665 227.128 142.496 225.81 142.316 224.491L140.335 224.761ZM141.271 232.601C141.405 233.915 141.527 235.226 141.637 236.536L143.63 236.369C143.519 235.047 143.396 233.723 143.261 232.398L141.271 232.601ZM141.927 240.465C142.011 241.782 142.082 243.097 142.139 244.41L144.137 244.324C144.08 242.997 144.008 241.668 143.923 240.338L141.927 240.465ZM142.266 248.347C142.294 249.664 142.308 250.98 142.306 252.293L144.306 252.296C144.308 250.967 144.294 249.636 144.266 248.304L142.266 248.347ZM142.252 256.232C142.218 257.546 142.168 258.859 142.101 260.17L144.099 260.272C144.166 258.944 144.217 257.614 144.251 256.283L142.252 256.232ZM141.849 264.1C141.748 265.41 141.629 266.717 141.492 268.022L143.481 268.231C143.62 266.907 143.741 265.582 143.843 264.254L141.849 264.1ZM141.026 271.93C140.853 273.231 140.66 274.529 140.448 275.825L142.422 276.148C142.637 274.832 142.832 273.515 143.009 272.195L141.026 271.93ZM139.757 279.696C139.507 280.984 139.237 282.269 138.946 283.552L140.897 283.994C141.192 282.69 141.466 281.385 141.72 280.077L139.757 279.696ZM138.021 287.368C137.693 288.636 137.344 289.902 136.973 291.166L138.893 291.728C139.269 290.444 139.623 289.158 139.957 287.87L138.021 287.368ZM135.809 294.916C135.402 296.158 134.974 297.398 134.523 298.637L136.403 299.32C136.861 298.062 137.296 296.801 137.71 295.539L135.809 294.916ZM133.122 302.307C132.637 303.519 132.131 304.728 131.603 305.936L133.435 306.738C133.972 305.511 134.486 304.281 134.979 303.05L133.122 302.307ZM129.97 309.514C129.687 310.109 129.398 310.704 129.104 311.299L130.896 312.186C131.195 311.582 131.488 310.977 131.776 310.373L129.97 309.514Z" fill="#BBCCFF"/>
<g id="Group 2">
<line id="Line 33" x1="215.707" y1="308.707" x2="200.707" y2="323.707" stroke="#BBCCFF" stroke-width="2"/>
<line id="Line 34" x1="200.707" y1="308.293" x2="215.707" y2="323.293" stroke="#BBCCFF" stroke-width="2"/>
</g>
<g id="Group 3">
<line id="Line 33_2" x1="239.707" y1="198.707" x2="224.707" y2="213.707" stroke="#BBCCFF" stroke-width="2"/>
<line id="Line 34_2" x1="224.707" y1="198.293" x2="239.707" y2="213.293" stroke="#BBCCFF" stroke-width="2"/>
</g>
<g id="Group 1">
<line id="Line 33_3" x1="132.707" y1="321.707" x2="117.707" y2="336.707" stroke="#BBCCFF" stroke-width="2"/>
<line id="Line 34_3" x1="117.707" y1="321.293" x2="132.707" y2="336.293" stroke="#BBCCFF" stroke-width="2"/>
</g>
</g>
<g id="Paths 2">
<path id="Vector" d="M242.5 428L241.671 428.56L242.5 428ZM349.587 499.497C350.138 499.451 350.547 498.968 350.501 498.417L349.758 489.448C349.712 488.898 349.229 488.489 348.679 488.534C348.128 488.58 347.719 489.063 347.765 489.613L348.425 497.586L340.453 498.247C339.902 498.292 339.493 498.775 339.539 499.326C339.584 499.876 340.067 500.285 340.618 500.24L349.587 499.497ZM207.005 328C207.005 328.688 207.01 329.38 207.02 330.077L209.02 330.046C209.01 329.36 209.005 328.678 209.005 328L207.005 328ZM207.147 334.232C207.21 335.601 207.293 336.986 207.399 338.388L209.393 338.237C209.289 336.856 209.207 335.49 209.145 334.141L207.147 334.232ZM207.772 342.524C207.915 343.888 208.079 345.266 208.265 346.657L210.247 346.392C210.064 345.019 209.902 343.66 209.761 342.316L207.772 342.524ZM208.873 350.765C209.093 352.118 209.334 353.483 209.596 354.86L211.561 354.485C211.302 353.126 211.064 351.779 210.848 350.445L208.873 350.765ZM210.429 358.932C210.721 360.269 211.033 361.618 211.367 362.977L213.309 362.499C212.98 361.157 212.671 359.826 212.383 358.505L210.429 358.932ZM212.411 367.001C212.771 368.323 213.152 369.654 213.554 370.996L215.47 370.422C215.073 369.096 214.696 367.78 214.34 366.474L212.411 367.001ZM214.793 374.956C215.217 376.258 215.661 377.568 216.126 378.888L218.012 378.224C217.553 376.919 217.114 375.623 216.694 374.336L214.793 374.956ZM217.55 382.79C218.034 384.073 218.538 385.363 219.061 386.661L220.916 385.913C220.398 384.629 219.9 383.352 219.421 382.084L217.55 382.79ZM220.653 390.491C221.192 391.749 221.749 393.014 222.326 394.286L224.148 393.46C223.577 392.201 223.025 390.949 222.492 389.703L220.653 390.491ZM224.076 398.046C224.666 399.282 225.274 400.524 225.9 401.772L227.688 400.875C227.067 399.638 226.465 398.408 225.881 397.184L224.076 398.046ZM227.796 405.461C228.434 406.673 229.088 407.891 229.761 409.114L231.513 408.151C230.847 406.938 230.198 405.731 229.567 404.53L227.796 405.461ZM231.79 412.73C232.471 413.918 233.169 415.112 233.883 416.31L235.601 415.286C234.892 414.097 234.201 412.914 233.526 411.736L231.79 412.73ZM236.036 419.853C236.756 421.017 237.493 422.186 238.246 423.359L239.929 422.279C239.182 421.115 238.451 419.955 237.736 418.8L236.036 419.853ZM240.512 426.829C240.895 427.405 241.281 427.982 241.671 428.56L243.329 427.44C242.941 426.867 242.558 426.294 242.178 425.723L240.512 426.829ZM241.671 428.56C242.06 429.136 242.452 429.702 242.846 430.26L244.479 429.105C244.093 428.559 243.71 428.005 243.329 427.44L241.671 428.56ZM245.28 433.548C246.13 434.644 246.99 435.702 247.862 436.725L249.384 435.428C248.533 434.428 247.691 433.394 246.861 432.323L245.28 433.548ZM250.591 439.778C251.537 440.787 252.495 441.759 253.465 442.697L254.856 441.259C253.909 440.344 252.974 439.395 252.05 438.41L250.591 439.778ZM256.477 445.472C257.513 446.381 258.56 447.255 259.618 448.099L260.865 446.535C259.83 445.711 258.807 444.856 257.797 443.969L256.477 445.472ZM262.876 450.577C263.985 451.381 265.105 452.157 266.237 452.908L267.342 451.241C266.233 450.505 265.136 449.745 264.051 448.958L262.876 450.577ZM269.685 455.1C270.848 455.809 272.023 456.496 273.207 457.165L274.191 455.424C273.024 454.765 271.869 454.089 270.727 453.392L269.685 455.1ZM276.787 459.118C277.985 459.75 279.193 460.367 280.411 460.974L281.303 459.183C280.097 458.583 278.903 457.973 277.72 457.349L276.787 459.118ZM284.068 462.752C285.286 463.331 286.512 463.904 287.748 464.472L288.584 462.655C287.355 462.089 286.136 461.521 284.927 460.946L284.068 462.752ZM291.441 466.151C292.666 466.703 293.899 467.254 295.14 467.808L295.955 465.982C294.715 465.428 293.484 464.878 292.263 464.328L291.441 466.151ZM298.836 469.46C300.058 470.007 301.287 470.56 302.523 471.122L303.35 469.301C302.11 468.737 300.877 468.183 299.653 467.635L298.836 469.46ZM306.196 472.808C307.406 473.37 308.624 473.944 309.847 474.53L310.712 472.727C309.48 472.136 308.256 471.56 307.039 470.994L306.196 472.808ZM313.472 476.301C314.664 476.895 315.862 477.503 317.065 478.129L317.987 476.354C316.773 475.723 315.565 475.109 314.363 474.511L313.472 476.301ZM320.621 480.021C321.788 480.657 322.96 481.311 324.137 481.985L325.131 480.249C323.941 479.568 322.757 478.907 321.578 478.265L320.621 480.021ZM327.608 484.025C328.744 484.71 329.885 485.416 331.03 486.144L332.103 484.456C330.944 483.719 329.79 483.005 328.64 482.312L327.608 484.025ZM334.401 488.345C335.503 489.084 336.61 489.846 337.719 490.63L338.874 488.998C337.751 488.203 336.631 487.432 335.515 486.684L334.401 488.345ZM340.983 493.001C342.043 493.791 343.105 494.603 344.171 495.44L345.406 493.866C344.327 493.02 343.251 492.197 342.179 491.397L340.983 493.001ZM347.299 497.959C347.818 498.388 348.338 498.822 348.858 499.263L350.151 497.737C349.624 497.291 349.098 496.851 348.573 496.417L347.299 497.959Z" fill="#BBCCFF"/>
<path id="Vector_2" d="M436.056 480.831C436.515 480.524 436.638 479.903 436.331 479.444L431.329 471.962C431.022 471.503 430.401 471.38 429.942 471.687C429.483 471.994 429.36 472.615 429.667 473.074L434.113 479.724L427.462 484.171C427.003 484.478 426.88 485.099 427.187 485.558C427.494 486.017 428.115 486.14 428.574 485.833L436.056 480.831ZM229.5 219C229.5 219.608 229.491 220.26 229.475 220.955L231.474 221.002C231.491 220.294 231.5 219.626 231.5 219L229.5 219ZM229.32 225.018C229.259 226.271 229.183 227.611 229.097 229.033L231.093 229.155C231.18 227.727 231.256 226.379 231.318 225.116L229.32 225.018ZM228.838 233.073C228.752 234.372 228.66 235.724 228.564 237.127L230.559 237.264C230.655 235.861 230.748 234.507 230.834 233.205L228.838 233.073ZM228.288 241.143C228.199 242.45 228.107 243.793 228.015 245.171L230.011 245.304C230.103 243.928 230.194 242.586 230.284 241.28L228.288 241.143ZM227.75 249.216C227.664 250.545 227.579 251.9 227.495 253.282L229.492 253.404C229.575 252.024 229.66 250.671 229.746 249.344L227.75 249.216ZM227.258 257.323C227.183 258.648 227.11 259.994 227.039 261.36L229.036 261.464C229.107 260.101 229.18 258.758 229.255 257.436L227.258 257.323ZM226.838 265.426C226.776 266.759 226.717 268.109 226.661 269.475L228.659 269.557C228.715 268.195 228.774 266.849 228.836 265.519L226.838 265.426ZM226.508 273.52C226.461 274.865 226.418 276.223 226.379 277.594L228.378 277.651C228.417 276.285 228.46 274.93 228.506 273.59L226.508 273.52ZM226.278 281.634C226.25 282.977 226.225 284.331 226.206 285.695L228.206 285.723C228.225 284.364 228.249 283.015 228.278 281.677L226.278 281.634ZM226.163 289.757C226.155 291.099 226.151 292.449 226.153 293.808L228.153 293.805C228.151 292.452 228.155 291.107 228.163 289.77L226.163 289.757ZM226.175 297.882C226.188 299.224 226.207 300.572 226.232 301.926L228.232 301.889C228.207 300.541 228.188 299.198 228.175 297.862L226.175 297.882ZM226.326 305.992C226.363 307.338 226.407 308.689 226.457 310.045L228.456 309.97C228.405 308.621 228.362 307.276 228.325 305.937L226.326 305.992ZM226.628 314.103C226.691 315.452 226.762 316.804 226.84 318.159L228.837 318.044C228.759 316.696 228.689 315.351 228.626 314.009L226.628 314.103ZM227.095 322.211C227.188 323.56 227.288 324.911 227.396 326.264L229.39 326.105C229.282 324.76 229.183 323.416 229.091 322.074L227.095 322.211ZM227.743 330.309C227.867 331.657 228 333.006 228.14 334.355L230.13 334.147C229.99 332.806 229.858 331.466 229.735 330.126L227.743 330.309ZM228.588 338.391C228.747 339.736 228.914 341.081 229.091 342.425L231.074 342.164C230.898 340.83 230.732 339.494 230.575 338.158L228.588 338.391ZM229.649 346.451C229.845 347.792 230.05 349.131 230.266 350.469L232.24 350.15C232.026 348.823 231.822 347.493 231.628 346.162L229.649 346.451ZM230.945 354.478C231.182 355.814 231.43 357.147 231.688 358.476L233.652 358.094C233.395 356.776 233.149 355.454 232.914 354.128L230.945 354.478ZM232.499 362.461C232.782 363.79 233.076 365.115 233.381 366.434L235.33 365.983C235.027 364.675 234.735 363.362 234.455 362.045L232.499 362.461ZM234.337 370.386C234.669 371.706 235.014 373.02 235.372 374.327L237.301 373.799C236.947 372.505 236.605 371.204 236.276 369.897L234.337 370.386ZM236.486 378.235C236.873 379.542 237.274 380.842 237.689 382.134L239.593 381.522C239.183 380.245 238.786 378.96 238.403 377.667L236.486 378.235ZM238.978 385.993C239.426 387.28 239.887 388.559 240.364 389.829L242.237 389.126C241.766 387.872 241.31 386.609 240.868 385.337L238.978 385.993ZM241.847 393.625C242.359 394.887 242.887 396.139 243.431 397.38L245.263 396.577C244.726 395.353 244.205 394.118 243.7 392.872L241.847 393.625ZM245.125 401.094C245.708 402.324 246.308 403.543 246.925 404.748L248.705 403.836C248.097 402.65 247.507 401.45 246.932 400.238L245.125 401.094ZM248.847 408.357C249.507 409.549 250.186 410.728 250.883 411.891L252.599 410.863C251.914 409.72 251.246 408.561 250.597 407.388L248.847 408.357ZM253.046 415.36C253.416 415.931 253.791 416.497 254.171 417.06L255.829 415.94C255.456 415.388 255.088 414.832 254.724 414.272L253.046 415.36ZM254.171 417.06C254.551 417.622 254.934 418.179 255.318 418.73L256.958 417.585C256.579 417.043 256.203 416.495 255.829 415.94L254.171 417.06ZM257.65 421.961C258.458 423.045 259.276 424.104 260.102 425.139L261.665 423.891C260.853 422.874 260.048 421.832 259.253 420.765L257.65 421.961ZM262.639 428.207C263.517 429.234 264.405 430.234 265.302 431.21L266.774 429.856C265.893 428.898 265.021 427.915 264.158 426.907L262.639 428.207ZM268.064 434.107C269.006 435.059 269.958 435.986 270.919 436.888L272.287 435.43C271.344 434.545 270.411 433.635 269.486 432.701L268.064 434.107ZM273.901 439.583C274.915 440.464 275.938 441.319 276.971 442.15L278.225 440.591C277.211 439.776 276.207 438.937 275.213 438.073L273.901 439.583ZM280.132 444.592C281.211 445.393 282.3 446.17 283.399 446.922L284.529 445.271C283.451 444.533 282.383 443.772 281.324 442.986L280.132 444.592ZM286.745 449.119C287.877 449.831 289.018 450.52 290.168 451.187L291.171 449.456C290.041 448.802 288.921 448.126 287.811 447.427L286.745 449.119ZM293.67 453.129C294.849 453.756 296.038 454.36 297.235 454.944L298.111 453.146C296.934 452.572 295.766 451.978 294.608 451.363L293.67 453.129ZM300.86 456.634C302.077 457.177 303.303 457.699 304.537 458.203L305.293 456.352C304.078 455.856 302.871 455.341 301.674 454.807L300.86 456.634ZM308.258 459.656C309.504 460.121 310.759 460.568 312.021 460.998L312.666 459.105C311.421 458.681 310.185 458.24 308.958 457.782L308.258 459.656ZM315.82 462.237C317.086 462.631 318.36 463.01 319.641 463.374L320.188 461.45C318.922 461.09 317.664 460.716 316.415 460.327L315.82 462.237ZM323.49 464.421C324.775 464.755 326.067 465.076 327.366 465.384L327.828 463.439C326.542 463.133 325.264 462.816 323.994 462.485L323.49 464.421ZM331.246 466.267C332.539 466.548 333.839 466.819 335.145 467.08L335.537 465.118C334.241 464.86 332.952 464.591 331.671 464.313L331.246 466.267ZM339.063 467.829C340.361 468.067 341.666 468.297 342.976 468.519L343.31 466.547C342.008 466.326 340.713 466.098 339.424 465.862L339.063 467.829ZM346.903 469.158C348.21 469.363 349.524 469.561 350.843 469.753L351.131 467.774C349.819 467.583 348.513 467.386 347.213 467.182L346.903 469.158ZM354.772 470.307C356.08 470.486 357.394 470.66 358.713 470.829L358.968 468.846C357.654 468.676 356.345 468.503 355.042 468.326L354.772 470.307ZM362.659 471.324C363.967 471.483 365.279 471.64 366.597 471.794L366.829 469.808C365.515 469.654 364.205 469.498 362.901 469.338L362.659 471.324ZM370.545 472.249C371.855 472.397 373.169 472.544 374.488 472.69L374.708 470.702C373.391 470.556 372.078 470.41 370.77 470.262L370.545 472.249ZM378.43 473.123C379.743 473.267 381.06 473.41 382.38 473.554L382.597 471.566C381.276 471.422 379.96 471.279 378.647 471.135L378.43 473.123ZM386.316 473.985C387.626 474.129 388.94 474.274 390.258 474.421L390.48 472.434C389.161 472.286 387.846 472.141 386.534 471.997L386.316 473.985ZM394.199 474.867C395.506 475.017 396.817 475.169 398.131 475.324L398.366 473.338C397.049 473.182 395.736 473.03 394.426 472.88L394.199 474.867ZM402.071 475.8C403.376 475.961 404.684 476.125 405.995 476.294L406.251 474.311C404.935 474.141 403.624 473.976 402.315 473.815L402.071 475.8ZM409.922 476.813C411.227 476.99 412.535 477.172 413.845 477.359L414.128 475.379C412.812 475.191 411.5 475.009 410.191 474.832L409.922 476.813ZM417.758 477.935C419.061 478.132 420.367 478.335 421.676 478.545L421.993 476.57C420.678 476.359 419.366 476.155 418.057 475.957L417.758 477.935ZM425.572 479.189C426.87 479.41 428.17 479.638 429.472 479.874L429.829 477.906C428.519 477.669 427.212 477.44 425.908 477.218L425.572 479.189ZM433.358 480.6C434.006 480.725 434.656 480.852 435.305 480.981L435.695 479.019C435.041 478.889 434.388 478.762 433.736 478.636L433.358 480.6Z" fill="#BBCCFF"/>
<g id="Group 4">
<line id="Line 33_4" x1="373.707" y1="491.707" x2="358.707" y2="506.707" stroke="#BBCCFF" stroke-width="2"/>
<line id="Line 34_4" x1="358.707" y1="491.293" x2="373.707" y2="506.293" stroke="#BBCCFF" stroke-width="2"/>
</g>
<g id="Group 5">
<line id="Line 33_5" x1="460.707" y1="479.707" x2="445.707" y2="494.707" stroke="#BBCCFF" stroke-width="2"/>
<line id="Line 34_5" x1="445.707" y1="479.293" x2="460.707" y2="494.293" stroke="#BBCCFF" stroke-width="2"/>
</g>
</g>
<g id="Paths 3">
<path id="Vector_3" d="M446 457.5L445.267 456.82L446 457.5ZM407.635 329.999C407.358 330.477 407.521 331.089 407.999 331.365L415.788 335.875C416.266 336.151 416.878 335.988 417.154 335.51C417.431 335.032 417.268 334.421 416.79 334.144L409.866 330.136L413.875 323.212C414.151 322.734 413.988 322.122 413.51 321.846C413.032 321.569 412.421 321.732 412.144 322.21L407.635 329.999ZM379.081 498.497C379.764 498.441 380.437 498.383 381.101 498.322L380.918 496.33C380.261 496.391 379.595 496.448 378.919 496.503L379.081 498.497ZM385.135 497.9C386.509 497.736 387.849 497.553 389.161 497.345L388.848 495.369C387.564 495.573 386.25 495.752 384.898 495.914L385.135 497.9ZM393.169 496.609C394.514 496.326 395.835 496.008 397.14 495.648L396.608 493.72C395.345 494.068 394.064 494.377 392.757 494.652L393.169 496.609ZM401.047 494.425C402.324 493.975 403.592 493.478 404.86 492.926L404.062 491.092C402.838 491.625 401.615 492.105 400.383 492.538L401.047 494.425ZM408.554 491.16C409.733 490.546 410.918 489.88 412.116 489.158L411.082 487.445C409.92 488.147 408.771 488.792 407.63 489.386L408.554 491.16ZM415.546 486.955C416.634 486.215 417.737 485.426 418.859 484.585L417.66 482.985C416.561 483.808 415.483 484.579 414.421 485.301L415.546 486.955ZM422.064 482.085C423.081 481.262 424.117 480.396 425.173 479.485L423.867 477.97C422.825 478.868 421.806 479.721 420.806 480.531L422.064 482.085ZM428.206 476.8C429.179 475.917 430.171 474.998 431.184 474.039L429.81 472.586C428.806 473.536 427.824 474.446 426.862 475.319L428.206 476.8ZM434.089 471.243C435.024 470.327 435.978 469.38 436.951 468.4L435.532 466.991C434.565 467.965 433.618 468.905 432.69 469.814L434.089 471.243ZM439.778 465.519C440.692 464.577 441.624 463.607 442.574 462.609L441.124 461.23C440.179 462.224 439.252 463.19 438.343 464.127L439.778 465.519ZM445.341 459.674C445.801 459.182 446.265 458.685 446.733 458.181L445.267 456.82C444.801 457.322 444.339 457.818 443.881 458.307L445.341 459.674ZM446.733 458.181C447.19 457.688 447.64 457.179 448.082 456.654L446.553 455.365C446.131 455.867 445.702 456.352 445.267 456.82L446.733 458.181ZM450.597 453.393C451.373 452.296 452.123 451.148 452.846 449.953L451.135 448.918C450.435 450.075 449.711 451.183 448.964 452.238L450.597 453.393ZM454.86 446.375C455.482 445.188 456.081 443.963 456.656 442.705L454.838 441.873C454.276 443.1 453.693 444.292 453.088 445.447L454.86 446.375ZM458.259 438.965C458.759 437.72 459.237 436.448 459.694 435.151L457.808 434.487C457.36 435.757 456.892 437.003 456.403 438.221L458.259 438.965ZM460.973 431.276C461.37 429.99 461.746 428.683 462.102 427.36L460.171 426.841C459.821 428.141 459.451 429.424 459.062 430.686L460.973 431.276ZM463.088 423.423C463.394 422.111 463.679 420.785 463.944 419.446L461.983 419.057C461.721 420.375 461.441 421.68 461.14 422.97L463.088 423.423ZM464.673 415.439C464.893 414.11 465.094 412.771 465.275 411.425L463.293 411.159C463.115 412.485 462.917 413.803 462.7 415.112L464.673 415.439ZM465.756 407.39C465.895 406.044 466.015 404.693 466.115 403.339L464.12 403.193C464.022 404.526 463.904 405.857 463.766 407.183L465.756 407.39ZM466.352 399.284C466.411 397.929 466.449 396.574 466.467 395.22L464.467 395.194C464.45 396.528 464.412 397.863 464.354 399.197L466.352 399.284ZM466.457 391.155C466.432 389.798 466.386 388.443 466.318 387.093L464.32 387.194C464.387 388.522 464.433 389.855 464.457 391.192L466.457 391.155ZM466.046 383.031C465.932 381.674 465.795 380.324 465.635 378.984L463.649 379.221C463.806 380.537 463.941 381.864 464.053 383.198L466.046 383.031ZM465.079 374.959C464.867 373.606 464.629 372.265 464.366 370.939L462.404 371.328C462.662 372.628 462.895 373.942 463.104 375.27L465.079 374.959ZM463.488 366.956C463.164 365.626 462.813 364.314 462.435 363.023L460.515 363.586C460.885 364.846 461.228 366.128 461.545 367.429L463.488 366.956ZM461.188 359.136C460.732 357.833 460.245 356.555 459.727 355.306L457.88 356.072C458.383 357.285 458.856 358.527 459.3 359.796L461.188 359.136ZM458.042 351.571C457.434 350.332 456.79 349.126 456.111 347.957L454.382 348.961C455.036 350.088 455.658 351.253 456.246 352.452L458.042 351.571ZM453.915 344.492C453.126 343.35 452.297 342.254 451.427 341.206L449.888 342.483C450.719 343.484 451.513 344.534 452.27 345.629L453.915 344.492ZM448.637 338.157C447.651 337.182 446.622 336.264 445.547 335.407L444.3 336.97C445.317 337.782 446.294 338.652 447.23 339.578L448.637 338.157ZM442.169 333.013C441.003 332.283 439.791 331.619 438.533 331.026L437.68 332.835C438.865 333.394 440.008 334.02 441.108 334.708L442.169 333.013ZM434.684 329.482C433.389 329.05 432.052 328.687 430.672 328.396L430.26 330.354C431.566 330.628 432.829 330.972 434.05 331.379L434.684 329.482ZM426.591 327.766C425.259 327.631 423.893 327.56 422.492 327.555L422.484 329.555C423.823 329.56 425.125 329.628 426.39 329.756L426.591 327.766ZM418.381 327.723C417.037 327.836 415.664 328.005 414.26 328.234L414.582 330.208C415.936 329.987 417.258 329.824 418.548 329.716L418.381 327.723ZM410.287 329.023C409.612 329.18 408.93 329.35 408.242 329.534L408.758 331.466C409.426 331.288 410.087 331.123 410.741 330.971L410.287 329.023Z" fill="#BBCCFF"/>
<path id="Vector_4" d="M510 328.5L509.453 327.663L510 328.5ZM689.796 182.395C689.462 181.955 688.835 181.87 688.395 182.204L681.228 187.648C680.788 187.982 680.703 188.609 681.037 189.049C681.371 189.489 681.998 189.574 682.438 189.24L688.809 184.401L693.648 190.772C693.982 191.212 694.609 191.297 695.049 190.963C695.489 190.629 695.574 190.002 695.24 189.562L689.796 182.395ZM455.982 475.022C456.11 474.354 456.233 473.682 456.351 473.006L454.381 472.661C454.265 473.327 454.144 473.988 454.018 474.645L455.982 475.022ZM457.001 468.942C457.197 467.597 457.378 466.238 457.545 464.867L455.56 464.625C455.394 465.982 455.216 467.325 455.022 468.654L457.001 468.942ZM458.003 460.786C458.142 459.435 458.271 458.073 458.392 456.701L456.4 456.525C456.28 457.888 456.151 459.24 456.013 460.581L458.003 460.786ZM458.73 452.615C458.835 451.261 458.934 449.9 459.03 448.531L457.035 448.391C456.94 449.756 456.84 451.113 456.736 452.46L458.73 452.615ZM459.307 444.452C459.396 443.099 459.485 441.739 459.573 440.374L457.577 440.245C457.489 441.61 457.401 442.969 457.312 444.32L459.307 444.452ZM459.84 436.298C459.93 434.944 460.022 433.586 460.119 432.224L458.124 432.083C458.027 433.449 457.934 434.81 457.844 436.165L459.84 436.298ZM460.421 428.154C460.526 426.802 460.637 425.446 460.756 424.089L458.763 423.915C458.644 425.279 458.533 426.641 458.427 427.999L460.421 428.154ZM461.134 420.032C461.268 418.683 461.411 417.334 461.565 415.983L459.578 415.757C459.423 417.118 459.279 418.477 459.144 419.834L461.134 420.032ZM462.058 411.943C462.234 410.6 462.422 409.257 462.624 407.915L460.646 407.618C460.442 408.973 460.253 410.329 460.075 411.684L462.058 411.943ZM463.271 403.901C463.501 402.567 463.747 401.235 464.009 399.905L462.047 399.518C461.781 400.864 461.533 402.212 461.3 403.561L463.271 403.901ZM464.846 395.932C465.142 394.614 465.457 393.299 465.791 391.987L463.853 391.493C463.514 392.824 463.195 394.158 462.895 395.494L464.846 395.932ZM466.853 388.073C467.226 386.777 467.62 385.484 468.038 384.196L466.135 383.58C465.711 384.889 465.31 386.203 464.931 387.519L466.853 388.073ZM469.354 380.363C469.813 379.097 470.297 377.837 470.805 376.582L468.952 375.831C468.434 377.109 467.941 378.392 467.474 379.68L469.354 380.363ZM472.396 372.863C472.948 371.639 473.527 370.422 474.132 369.21L472.343 368.316C471.725 369.552 471.136 370.793 470.573 372.041L472.396 372.863ZM476.015 365.629C476.664 364.454 477.341 363.286 478.047 362.125L476.338 361.085C475.618 362.27 474.927 363.463 474.264 364.662L476.015 365.629ZM480.219 358.72C480.961 357.609 481.731 356.506 482.532 355.411L480.918 354.23C480.1 355.349 479.313 356.475 478.556 357.609L480.219 358.72ZM484.988 352.197C485.824 351.15 486.689 350.111 487.585 349.08L486.076 347.768C485.161 348.82 484.278 349.88 483.425 350.949L484.988 352.197ZM490.293 346.092C491.207 345.123 492.15 344.163 493.124 343.211L491.726 341.781C490.733 342.752 489.771 343.731 488.838 344.719L490.293 346.092ZM496.082 340.43C497.069 339.536 498.085 338.651 499.131 337.775L497.845 336.243C496.781 337.135 495.746 338.036 494.74 338.946L496.082 340.43ZM502.272 335.236C503.329 334.412 504.415 333.596 505.528 332.789L504.355 331.17C503.222 331.99 502.119 332.82 501.043 333.658L502.272 335.236ZM508.833 330.476C509.398 330.094 509.969 329.715 510.547 329.337L509.453 327.663C508.866 328.046 508.286 328.431 507.713 328.819L508.833 330.476ZM510.547 329.337C511.112 328.968 511.68 328.609 512.251 328.258L511.205 326.554C510.618 326.914 510.034 327.283 509.453 327.663L510.547 329.337ZM515.713 326.26C516.894 325.621 518.087 325.016 519.29 324.443L518.431 322.637C517.197 323.225 515.973 323.845 514.761 324.502L515.713 326.26ZM522.948 322.813C524.185 322.298 525.432 321.813 526.689 321.356L526.006 319.477C524.721 319.944 523.445 320.44 522.179 320.967L522.948 322.813ZM530.491 320.067C531.769 319.663 533.055 319.285 534.35 318.929L533.821 317.001C532.503 317.362 531.192 317.748 529.888 318.16L530.491 320.067ZM538.247 317.934C539.552 317.624 540.863 317.335 542.182 317.064L541.779 315.105C540.442 315.38 539.11 315.673 537.785 315.988L538.247 317.934ZM546.145 316.304C547.466 316.068 548.793 315.848 550.125 315.641L549.818 313.664C548.472 313.874 547.13 314.097 545.794 314.335L546.145 316.304ZM554.129 315.057C555.461 314.874 556.798 314.703 558.138 314.539L557.896 312.554C556.547 312.718 555.201 312.891 553.858 313.075L554.129 315.057ZM562.162 314.072C563.503 313.923 564.847 313.78 566.193 313.641L565.987 311.652C564.637 311.791 563.288 311.935 561.941 312.084L562.162 314.072ZM570.228 313.233C571.574 313.098 572.92 312.966 574.27 312.832L574.072 310.842C572.725 310.975 571.376 311.108 570.03 311.242L570.228 313.233ZM578.312 312.425C579.661 312.287 581.009 312.146 582.358 311.999L582.141 310.011C580.798 310.157 579.454 310.298 578.109 310.436L578.312 312.425ZM586.401 311.539C587.75 311.378 589.099 311.209 590.445 311.03L590.181 309.048C588.845 309.225 587.506 309.393 586.165 309.553L586.401 311.539ZM594.481 310.46C595.827 310.257 597.171 310.042 598.511 309.812L598.173 307.841C596.847 308.068 595.517 308.281 594.183 308.482L594.481 310.46ZM602.528 309.073C603.865 308.81 605.198 308.529 606.527 308.229L606.086 306.278C604.777 306.574 603.462 306.851 602.142 307.111L602.528 309.073ZM610.504 307.264C611.824 306.92 613.139 306.555 614.448 306.164L613.876 304.248C612.591 304.631 611.299 304.99 610 305.328L610.504 307.264ZM618.352 304.918C619.643 304.477 620.927 304.009 622.203 303.513L621.477 301.649C620.228 302.135 618.971 302.593 617.706 303.025L618.352 304.918ZM625.998 301.936C627.242 301.385 628.478 300.803 629.705 300.189L628.808 298.401C627.611 299.001 626.404 299.569 625.189 300.107L625.998 301.936ZM633.336 298.254C634.519 297.585 635.692 296.882 636.855 296.143L635.783 294.455C634.649 295.175 633.505 295.86 632.352 296.513L633.336 298.254ZM640.263 293.851C641.372 293.063 642.471 292.238 643.559 291.375L642.316 289.808C641.256 290.649 640.185 291.453 639.104 292.221L640.263 293.851ZM646.695 288.753C647.72 287.852 648.733 286.913 649.736 285.936L648.34 284.504C647.362 285.457 646.373 286.373 645.374 287.252L646.695 288.753ZM652.575 283.031C653.508 282.03 654.429 280.994 655.338 279.92L653.812 278.627C652.923 279.677 652.023 280.69 651.112 281.668L652.575 283.031ZM657.881 276.781C658.718 275.7 659.545 274.585 660.36 273.434L658.729 272.278C657.929 273.406 657.119 274.498 656.3 275.556L657.881 276.781ZM662.624 270.104C663.367 268.965 664.1 267.793 664.824 266.588L663.109 265.559C662.398 266.743 661.678 267.893 660.949 269.012L662.624 270.104ZM666.844 263.087C667.497 261.909 668.142 260.701 668.777 259.464L666.998 258.55C666.372 259.769 665.738 260.958 665.095 262.116L666.844 263.087ZM670.593 255.789C671.164 254.59 671.726 253.365 672.28 252.112L670.451 251.303C669.904 252.539 669.35 253.747 668.787 254.929L670.593 255.789ZM673.917 248.273C674.417 247.059 674.909 245.82 675.393 244.557L673.526 243.84C673.047 245.089 672.561 246.313 672.068 247.513L673.917 248.273ZM676.812 240.726C677.273 239.44 677.726 238.13 678.171 236.796L676.274 236.163C675.833 237.484 675.385 238.78 674.929 240.053L676.812 240.726ZM679.395 233.006C679.797 231.721 680.192 230.415 680.58 229.086L678.661 228.525C678.276 229.842 677.884 231.136 677.487 232.409L679.395 233.006ZM681.712 225.085C682.056 223.823 682.395 222.543 682.729 221.243L680.791 220.746C680.461 222.036 680.124 223.306 679.782 224.557L681.712 225.085ZM683.711 217.286C684.032 215.948 684.348 214.59 684.657 213.213L682.706 212.774C682.398 214.142 682.085 215.491 681.766 216.819L683.711 217.286ZM685.503 209.324C685.778 208.023 686.047 206.705 686.311 205.37L684.349 204.982C684.086 206.309 683.819 207.619 683.546 208.912L685.503 209.324ZM687.087 201.312C687.333 199.98 687.575 198.632 687.811 197.266L685.84 196.925C685.605 198.283 685.365 199.624 685.12 200.948L687.087 201.312ZM688.468 193.343C688.683 192.021 688.893 190.683 689.098 189.329L687.121 189.029C686.917 190.376 686.708 191.707 686.494 193.023L688.468 193.343ZM689.7 185.223C689.798 184.531 689.895 183.835 689.991 183.135L688.009 182.865C687.914 183.561 687.818 184.254 687.72 184.943L689.7 185.223Z" fill="#BBCCFF"/>
<g id="Group 6">
<line id="Line 33_6" x1="400.707" y1="324.707" x2="385.707" y2="339.707" stroke="#BBCCFF" stroke-width="2"/>
<line id="Line 34_6" x1="385.707" y1="324.293" x2="400.707" y2="339.293" stroke="#BBCCFF" stroke-width="2"/>
</g>
<g id="Group 7">
<line id="Line 33_7" x1="694.707" y1="164.707" x2="679.707" y2="179.707" stroke="#BBCCFF" stroke-width="2"/>
<line id="Line 34_7" x1="679.707" y1="164.293" x2="694.707" y2="179.293" stroke="#BBCCFF" stroke-width="2"/>
</g>
</g>
</g>
<g id="Title">
<path id="HEIST-O-RAMA" d="M608.92 63V45.5455H610.513V53.5483H620.417V45.5455H622.011V63H620.417V54.9801H610.513V63H608.92ZM626.638 63V45.5455H636.763V46.9773H628.232V53.5483H636.227V54.9801H628.232V61.5682H636.934V63H626.638ZM642.482 45.5455V63H640.888V45.5455H642.482ZM656.6 49.9091C656.504 48.9375 656.075 48.1648 655.313 47.5909C654.552 47.017 653.594 46.7301 652.441 46.7301C651.629 46.7301 650.913 46.8693 650.293 47.1477C649.68 47.4261 649.197 47.8125 648.844 48.3068C648.498 48.7955 648.325 49.3523 648.325 49.9773C648.325 50.4375 648.424 50.8409 648.623 51.1875C648.822 51.5341 649.089 51.8324 649.424 52.0824C649.765 52.3267 650.14 52.5369 650.549 52.7131C650.964 52.8892 651.381 53.0369 651.802 53.1562L653.643 53.6847C654.2 53.8381 654.756 54.0341 655.313 54.2727C655.87 54.5114 656.379 54.8125 656.839 55.1761C657.305 55.5341 657.677 55.9744 657.955 56.4972C658.239 57.0142 658.381 57.6364 658.381 58.3636C658.381 59.2955 658.14 60.1335 657.657 60.8778C657.174 61.6222 656.481 62.2131 655.577 62.6506C654.674 63.0824 653.592 63.2983 652.33 63.2983C651.143 63.2983 650.112 63.1023 649.237 62.7102C648.362 62.3125 647.674 61.7642 647.174 61.0653C646.674 60.3665 646.393 59.5568 646.33 58.6364H647.967C648.023 59.3239 648.251 59.9062 648.648 60.3835C649.046 60.8608 649.563 61.2244 650.2 61.4744C650.836 61.7187 651.546 61.8409 652.33 61.8409C653.2 61.8409 653.972 61.696 654.648 61.4062C655.33 61.1108 655.864 60.7017 656.251 60.179C656.643 59.6506 656.839 59.0369 656.839 58.3381C656.839 57.7472 656.685 57.2528 656.379 56.8551C656.072 56.4517 655.643 56.1136 655.092 55.8409C654.546 55.5682 653.913 55.3267 653.191 55.1165L651.103 54.5028C649.734 54.0937 648.671 53.5284 647.915 52.8068C647.16 52.0852 646.782 51.1648 646.782 50.0455C646.782 49.108 647.032 48.2841 647.532 47.5739C648.038 46.858 648.719 46.3011 649.577 45.9034C650.441 45.5 651.41 45.2983 652.484 45.2983C653.569 45.2983 654.529 45.4972 655.364 45.8949C656.2 46.2926 656.862 46.8409 657.35 47.5398C657.844 48.233 658.109 49.0227 658.143 49.9091H656.6ZM661.16 46.9773V45.5455H673.816V46.9773H668.285V63H666.691V46.9773H661.16ZM682.373 53.5568V54.9886H675.112V53.5568H682.373ZM700.808 54.2727C700.808 56.0909 700.484 57.6733 699.836 59.0199C699.188 60.3608 698.296 61.4006 697.16 62.1392C696.029 62.8722 694.728 63.2386 693.256 63.2386C691.785 63.2386 690.481 62.8722 689.344 62.1392C688.214 61.4006 687.325 60.3608 686.677 59.0199C686.035 57.6733 685.714 56.0909 685.714 54.2727C685.714 52.4545 686.035 50.875 686.677 49.5341C687.325 48.1875 688.217 47.1477 689.353 46.4148C690.489 45.6761 691.79 45.3068 693.256 45.3068C694.728 45.3068 696.029 45.6761 697.16 46.4148C698.296 47.1477 699.188 48.1875 699.836 49.5341C700.484 50.875 700.808 52.4545 700.808 54.2727ZM699.256 54.2727C699.256 52.7102 698.995 51.3722 698.472 50.2585C697.95 49.1392 697.237 48.2841 696.333 47.6932C695.43 47.1023 694.404 46.8068 693.256 46.8068C692.114 46.8068 691.092 47.1023 690.188 47.6932C689.285 48.2841 688.569 49.1364 688.04 50.25C687.518 51.3636 687.256 52.7045 687.256 54.2727C687.256 55.8352 687.518 57.1733 688.04 58.2869C688.563 59.4006 689.276 60.2557 690.18 60.8523C691.083 61.4432 692.109 61.7386 693.256 61.7386C694.404 61.7386 695.43 61.4432 696.333 60.8523C697.242 60.2614 697.958 59.4091 698.481 58.2955C699.004 57.1761 699.262 55.8352 699.256 54.2727ZM711.412 53.5568V54.9886H704.151V53.5568H711.412ZM715.537 63V45.5455H721.17C722.409 45.5455 723.443 45.7699 724.273 46.2188C725.108 46.6619 725.736 47.2784 726.156 48.0682C726.582 48.8523 726.795 49.7528 726.795 50.7699C726.795 51.7869 726.582 52.6847 726.156 53.4631C725.736 54.2415 725.111 54.8494 724.281 55.2869C723.452 55.7244 722.423 55.9432 721.196 55.9432H716.398V54.4858H721.153C722.063 54.4858 722.818 54.3352 723.42 54.0341C724.028 53.733 724.48 53.304 724.776 52.7472C725.077 52.1903 725.227 51.5312 725.227 50.7699C725.227 50.0085 725.077 49.3437 724.776 48.7756C724.474 48.2017 724.02 47.7585 723.412 47.446C722.81 47.1335 722.048 46.9773 721.128 46.9773H717.131V63H715.537ZM723.233 55.125L727.528 63H725.688L721.435 55.125H723.233ZM730.703 63H729.033L735.382 45.5455H737.087L743.436 63H741.766L736.294 47.6165H736.175L730.703 63ZM731.905 56.3097H740.564V57.7415H731.905V56.3097ZM746.428 45.5455H748.268L754.601 60.75H754.754L761.087 45.5455H762.928V63H761.428V48.9119H761.291L755.402 63H753.953L748.064 48.9119H747.928V63H746.428V45.5455ZM767.594 63H765.923L772.273 45.5455H773.977L780.327 63H778.656L773.185 47.6165H773.065L767.594 63ZM768.795 56.3097H777.455V57.7415H768.795V56.3097Z" fill="#BBCCFF"/>
<line id="Line 35" x1="457" y1="69.5" x2="781" y2="69.5" stroke="#BBCCFF"/>
</g>
<g id="Start">
<path id="I&#226;&#128;&#153;m putting a team together..." d="M196.528 227.727V251H194.403V227.727H196.528ZM204.136 227.727V229.773C204.136 230.394 204.023 231.057 203.795 231.761C203.576 232.458 203.25 233.136 202.818 233.795C202.394 234.447 201.879 235.015 201.273 235.5L200.17 234.534C200.739 233.867 201.22 233.129 201.614 232.318C202.008 231.5 202.205 230.663 202.205 229.807V227.727H204.136ZM207.202 251V233.545H209.168V236.227H209.349C209.698 235.326 210.277 234.617 211.088 234.102C211.906 233.58 212.887 233.318 214.031 233.318C215.236 233.318 216.224 233.602 216.997 234.17C217.777 234.731 218.361 235.504 218.747 236.489H218.895C219.289 235.519 219.929 234.75 220.815 234.182C221.709 233.606 222.793 233.318 224.065 233.318C225.687 233.318 226.967 233.83 227.906 234.852C228.846 235.867 229.315 237.352 229.315 239.307V251H227.293V239.307C227.293 237.928 226.94 236.894 226.236 236.205C225.531 235.515 224.603 235.17 223.452 235.17C222.118 235.17 221.092 235.58 220.372 236.398C219.652 237.216 219.293 238.254 219.293 239.511V251H217.224V239.125C217.224 237.943 216.895 236.989 216.236 236.261C215.577 235.534 214.649 235.17 213.452 235.17C212.649 235.17 211.925 235.367 211.281 235.761C210.645 236.155 210.141 236.705 209.77 237.409C209.406 238.106 209.224 238.909 209.224 239.818V251H207.202ZM243.67 257.545V233.545H245.636V236.875H245.875C246.117 236.352 246.451 235.818 246.875 235.273C247.299 234.72 247.86 234.254 248.557 233.875C249.261 233.496 250.148 233.307 251.216 233.307C252.655 233.307 253.913 233.686 254.989 234.443C256.072 235.193 256.913 236.246 257.511 237.602C258.117 238.951 258.42 240.523 258.42 242.318C258.42 244.121 258.117 245.701 257.511 247.057C256.913 248.413 256.072 249.47 254.989 250.227C253.913 250.985 252.663 251.364 251.239 251.364C250.186 251.364 249.303 251.174 248.591 250.795C247.886 250.417 247.314 249.951 246.875 249.398C246.443 248.837 246.11 248.292 245.875 247.761H245.693V257.545H243.67ZM245.67 242.284C245.67 243.693 245.879 244.943 246.295 246.034C246.72 247.117 247.326 247.97 248.114 248.591C248.909 249.205 249.871 249.511 251 249.511C252.159 249.511 253.136 249.193 253.932 248.557C254.735 247.913 255.345 247.045 255.761 245.955C256.186 244.864 256.398 243.64 256.398 242.284C256.398 240.943 256.189 239.735 255.773 238.659C255.364 237.583 254.758 236.731 253.955 236.102C253.152 235.466 252.167 235.148 251 235.148C249.864 235.148 248.898 235.455 248.102 236.068C247.307 236.674 246.701 237.515 246.284 238.591C245.875 239.659 245.67 240.89 245.67 242.284ZM273.949 244.33V233.545H275.972V251H273.949V248.102H273.79C273.381 248.996 272.733 249.742 271.847 250.341C270.96 250.932 269.877 251.227 268.597 251.227C267.483 251.227 266.494 250.985 265.631 250.5C264.767 250.008 264.089 249.288 263.597 248.341C263.104 247.394 262.858 246.231 262.858 244.852V233.545H264.881V244.727C264.881 246.091 265.282 247.189 266.085 248.023C266.888 248.848 267.919 249.261 269.176 249.261C269.964 249.261 270.722 249.072 271.449 248.693C272.176 248.314 272.775 247.761 273.244 247.034C273.714 246.299 273.949 245.398 273.949 244.33ZM288.202 233.545V235.307H279.872V233.545H288.202ZM282.474 229.364H284.509V246.443C284.509 247.17 284.634 247.742 284.884 248.159C285.134 248.568 285.459 248.86 285.861 249.034C286.262 249.201 286.69 249.284 287.145 249.284C287.41 249.284 287.637 249.269 287.827 249.239C288.016 249.201 288.183 249.163 288.327 249.125L288.759 250.955C288.562 251.03 288.319 251.098 288.031 251.159C287.743 251.227 287.387 251.261 286.963 251.261C286.221 251.261 285.505 251.098 284.815 250.773C284.134 250.447 283.573 249.962 283.134 249.318C282.694 248.674 282.474 247.875 282.474 246.92V229.364ZM299.67 233.545V235.307H291.341V233.545H299.67ZM293.943 229.364H295.977V246.443C295.977 247.17 296.102 247.742 296.352 248.159C296.602 248.568 296.928 248.86 297.33 249.034C297.731 249.201 298.159 249.284 298.614 249.284C298.879 249.284 299.106 249.269 299.295 249.239C299.485 249.201 299.652 249.163 299.795 249.125L300.227 250.955C300.03 251.03 299.788 251.098 299.5 251.159C299.212 251.227 298.856 251.261 298.432 251.261C297.689 251.261 296.973 251.098 296.284 250.773C295.602 250.447 295.042 249.962 294.602 249.318C294.163 248.674 293.943 247.875 293.943 246.92V229.364ZM304.287 251V233.545H306.321V251H304.287ZM305.321 230.545C304.904 230.545 304.548 230.405 304.253 230.125C303.957 229.837 303.81 229.492 303.81 229.091C303.81 228.689 303.957 228.348 304.253 228.068C304.548 227.78 304.904 227.636 305.321 227.636C305.738 227.636 306.094 227.78 306.389 228.068C306.685 228.348 306.832 228.689 306.832 229.091C306.832 229.492 306.685 229.837 306.389 230.125C306.094 230.405 305.738 230.545 305.321 230.545ZM313.693 240.091V251H311.67V233.545H313.636V236.284H313.818C314.227 235.39 314.864 234.674 315.727 234.136C316.598 233.591 317.674 233.318 318.955 233.318C320.129 233.318 321.159 233.564 322.045 234.057C322.939 234.542 323.633 235.258 324.125 236.205C324.625 237.152 324.875 238.314 324.875 239.693V251H322.852V239.818C322.852 238.386 322.451 237.254 321.648 236.42C320.852 235.587 319.784 235.17 318.443 235.17C317.527 235.17 316.712 235.367 316 235.761C315.288 236.155 314.723 236.723 314.307 237.466C313.898 238.201 313.693 239.076 313.693 240.091ZM336.861 257.909C335.671 257.909 334.63 257.754 333.736 257.443C332.842 257.14 332.088 256.723 331.474 256.193C330.861 255.663 330.384 255.068 330.043 254.409L331.702 253.318C331.952 253.758 332.285 254.189 332.702 254.614C333.126 255.038 333.675 255.39 334.349 255.67C335.031 255.951 335.868 256.091 336.861 256.091C338.406 256.091 339.652 255.705 340.599 254.932C341.554 254.159 342.031 252.958 342.031 251.33V247.398H341.849C341.615 247.928 341.277 248.458 340.838 248.989C340.399 249.511 339.823 249.947 339.111 250.295C338.406 250.644 337.531 250.818 336.486 250.818C335.092 250.818 333.853 250.473 332.77 249.784C331.694 249.095 330.846 248.11 330.224 246.83C329.611 245.542 329.304 244.008 329.304 242.227C329.304 240.462 329.603 238.909 330.202 237.568C330.808 236.227 331.652 235.182 332.736 234.432C333.819 233.682 335.08 233.307 336.52 233.307C337.588 233.307 338.474 233.496 339.179 233.875C339.884 234.246 340.448 234.708 340.872 235.261C341.304 235.814 341.641 236.352 341.884 236.875H342.088V233.545H344.065V251.455C344.065 252.932 343.751 254.148 343.122 255.102C342.493 256.057 341.637 256.761 340.554 257.216C339.471 257.678 338.24 257.909 336.861 257.909ZM336.724 248.966C337.846 248.966 338.804 248.697 339.599 248.159C340.395 247.614 341.005 246.833 341.429 245.818C341.853 244.803 342.065 243.595 342.065 242.193C342.065 240.83 341.857 239.621 341.44 238.568C341.024 237.508 340.418 236.674 339.622 236.068C338.834 235.455 337.868 235.148 336.724 235.148C335.558 235.148 334.573 235.462 333.77 236.091C332.967 236.72 332.361 237.568 331.952 238.636C331.543 239.697 331.338 240.883 331.338 242.193C331.338 243.527 331.546 244.705 331.963 245.727C332.38 246.742 332.99 247.538 333.793 248.114C334.596 248.682 335.573 248.966 336.724 248.966ZM363.295 251.398C362.242 251.398 361.28 251.193 360.409 250.784C359.538 250.367 358.845 249.769 358.33 248.989C357.814 248.201 357.557 247.246 357.557 246.125C357.557 245.261 357.72 244.534 358.045 243.943C358.371 243.352 358.833 242.867 359.432 242.489C360.03 242.11 360.739 241.811 361.557 241.591C362.375 241.371 363.277 241.201 364.261 241.08C365.239 240.958 366.064 240.852 366.739 240.761C367.42 240.67 367.939 240.527 368.295 240.33C368.652 240.133 368.83 239.814 368.83 239.375V238.966C368.83 237.777 368.473 236.841 367.761 236.159C367.057 235.47 366.042 235.125 364.716 235.125C363.458 235.125 362.432 235.402 361.636 235.955C360.848 236.508 360.295 237.159 359.977 237.909L358.057 237.216C358.451 236.261 358.996 235.5 359.693 234.932C360.39 234.356 361.17 233.943 362.034 233.693C362.898 233.436 363.773 233.307 364.659 233.307C365.326 233.307 366.019 233.394 366.739 233.568C367.466 233.742 368.14 234.045 368.761 234.477C369.383 234.902 369.886 235.496 370.273 236.261C370.659 237.019 370.852 237.981 370.852 239.148V251H368.83V248.239H368.705C368.462 248.754 368.102 249.254 367.625 249.739C367.148 250.223 366.549 250.621 365.83 250.932C365.11 251.242 364.265 251.398 363.295 251.398ZM363.568 249.545C364.644 249.545 365.576 249.307 366.364 248.83C367.152 248.352 367.758 247.72 368.182 246.932C368.614 246.136 368.83 245.261 368.83 244.307V241.784C368.678 241.928 368.424 242.057 368.068 242.17C367.72 242.284 367.314 242.386 366.852 242.477C366.398 242.561 365.943 242.633 365.489 242.693C365.034 242.754 364.625 242.807 364.261 242.852C363.277 242.973 362.436 243.163 361.739 243.42C361.042 243.678 360.508 244.034 360.136 244.489C359.765 244.936 359.58 245.511 359.58 246.216C359.58 247.277 359.958 248.098 360.716 248.682C361.473 249.258 362.424 249.545 363.568 249.545ZM392.108 233.545V235.307H383.778V233.545H392.108ZM386.381 229.364H388.415V246.443C388.415 247.17 388.54 247.742 388.79 248.159C389.04 248.568 389.366 248.86 389.767 249.034C390.169 249.201 390.597 249.284 391.051 249.284C391.316 249.284 391.544 249.269 391.733 249.239C391.922 249.201 392.089 249.163 392.233 249.125L392.665 250.955C392.468 251.03 392.225 251.098 391.938 251.159C391.65 251.227 391.294 251.261 390.869 251.261C390.127 251.261 389.411 251.098 388.722 250.773C388.04 250.447 387.479 249.962 387.04 249.318C386.6 248.674 386.381 247.875 386.381 246.92V229.364ZM403.571 251.364C401.942 251.364 400.533 250.985 399.344 250.227C398.154 249.462 397.234 248.405 396.582 247.057C395.938 245.701 395.616 244.14 395.616 242.375C395.616 240.617 395.938 239.057 396.582 237.693C397.234 236.322 398.132 235.25 399.276 234.477C400.427 233.697 401.757 233.307 403.264 233.307C404.211 233.307 405.124 233.481 406.003 233.83C406.882 234.17 407.67 234.697 408.366 235.409C409.071 236.114 409.628 237.004 410.037 238.08C410.446 239.148 410.651 240.413 410.651 241.875V242.875H397.014V241.091H408.582C408.582 239.97 408.355 238.962 407.901 238.068C407.454 237.167 406.829 236.455 406.026 235.932C405.23 235.409 404.31 235.148 403.264 235.148C402.158 235.148 401.185 235.443 400.344 236.034C399.503 236.625 398.844 237.405 398.366 238.375C397.897 239.345 397.658 240.405 397.651 241.557V242.625C397.651 244.011 397.889 245.223 398.366 246.261C398.851 247.292 399.537 248.091 400.423 248.659C401.31 249.227 402.359 249.511 403.571 249.511C404.397 249.511 405.12 249.383 405.741 249.125C406.37 248.867 406.897 248.523 407.321 248.091C407.753 247.652 408.079 247.17 408.298 246.648L410.219 247.273C409.954 248.008 409.518 248.686 408.912 249.307C408.313 249.928 407.563 250.428 406.662 250.807C405.768 251.178 404.738 251.364 403.571 251.364ZM419.983 251.398C418.93 251.398 417.968 251.193 417.097 250.784C416.225 250.367 415.532 249.769 415.017 248.989C414.502 248.201 414.244 247.246 414.244 246.125C414.244 245.261 414.407 244.534 414.733 243.943C415.059 243.352 415.521 242.867 416.119 242.489C416.718 242.11 417.426 241.811 418.244 241.591C419.063 241.371 419.964 241.201 420.949 241.08C421.926 240.958 422.752 240.852 423.426 240.761C424.108 240.67 424.627 240.527 424.983 240.33C425.339 240.133 425.517 239.814 425.517 239.375V238.966C425.517 237.777 425.161 236.841 424.449 236.159C423.744 235.47 422.729 235.125 421.403 235.125C420.146 235.125 419.119 235.402 418.324 235.955C417.536 236.508 416.983 237.159 416.665 237.909L414.744 237.216C415.138 236.261 415.684 235.5 416.381 234.932C417.078 234.356 417.858 233.943 418.722 233.693C419.585 233.436 420.46 233.307 421.347 233.307C422.013 233.307 422.706 233.394 423.426 233.568C424.153 233.742 424.828 234.045 425.449 234.477C426.07 234.902 426.574 235.496 426.96 236.261C427.347 237.019 427.54 237.981 427.54 239.148V251H425.517V248.239H425.392C425.15 248.754 424.79 249.254 424.312 249.739C423.835 250.223 423.237 250.621 422.517 250.932C421.797 251.242 420.953 251.398 419.983 251.398ZM420.256 249.545C421.331 249.545 422.263 249.307 423.051 248.83C423.839 248.352 424.445 247.72 424.869 246.932C425.301 246.136 425.517 245.261 425.517 244.307V241.784C425.366 241.928 425.112 242.057 424.756 242.17C424.407 242.284 424.002 242.386 423.54 242.477C423.085 242.561 422.631 242.633 422.176 242.693C421.722 242.754 421.312 242.807 420.949 242.852C419.964 242.973 419.123 243.163 418.426 243.42C417.729 243.678 417.195 244.034 416.824 244.489C416.453 244.936 416.267 245.511 416.267 246.216C416.267 247.277 416.646 248.098 417.403 248.682C418.161 249.258 419.112 249.545 420.256 249.545ZM432.92 251V233.545H434.886V236.227H435.068C435.417 235.326 435.996 234.617 436.807 234.102C437.625 233.58 438.606 233.318 439.75 233.318C440.955 233.318 441.943 233.602 442.716 234.17C443.496 234.731 444.08 235.504 444.466 236.489H444.614C445.008 235.519 445.648 234.75 446.534 234.182C447.428 233.606 448.511 233.318 449.784 233.318C451.405 233.318 452.686 233.83 453.625 234.852C454.564 235.867 455.034 237.352 455.034 239.307V251H453.011V239.307C453.011 237.928 452.659 236.894 451.955 236.205C451.25 235.515 450.322 235.17 449.17 235.17C447.837 235.17 446.811 235.58 446.091 236.398C445.371 237.216 445.011 238.254 445.011 239.511V251H442.943V239.125C442.943 237.943 442.614 236.989 441.955 236.261C441.295 235.534 440.367 235.17 439.17 235.17C438.367 235.17 437.644 235.367 437 235.761C436.364 236.155 435.86 236.705 435.489 237.409C435.125 238.106 434.943 238.909 434.943 239.818V251H432.92ZM476.264 233.545V235.307H467.935V233.545H476.264ZM470.537 229.364H472.571V246.443C472.571 247.17 472.696 247.742 472.946 248.159C473.196 248.568 473.522 248.86 473.923 249.034C474.325 249.201 474.753 249.284 475.207 249.284C475.473 249.284 475.7 249.269 475.889 249.239C476.079 249.201 476.245 249.163 476.389 249.125L476.821 250.955C476.624 251.03 476.382 251.098 476.094 251.159C475.806 251.227 475.45 251.261 475.026 251.261C474.283 251.261 473.567 251.098 472.878 250.773C472.196 250.447 471.635 249.962 471.196 249.318C470.757 248.674 470.537 247.875 470.537 246.92V229.364ZM487.455 251.364C485.947 251.364 484.614 250.981 483.455 250.216C482.303 249.451 481.402 248.394 480.75 247.045C480.098 245.689 479.773 244.125 479.773 242.352C479.773 240.564 480.098 238.992 480.75 237.636C481.402 236.273 482.303 235.212 483.455 234.455C484.614 233.689 485.947 233.307 487.455 233.307C488.962 233.307 490.292 233.689 491.443 234.455C492.595 235.22 493.496 236.28 494.148 237.636C494.807 238.992 495.136 240.564 495.136 242.352C495.136 244.125 494.811 245.689 494.159 247.045C493.508 248.394 492.602 249.451 491.443 250.216C490.292 250.981 488.962 251.364 487.455 251.364ZM487.455 249.511C488.667 249.511 489.693 249.186 490.534 248.534C491.375 247.883 492.011 247.015 492.443 245.932C492.883 244.848 493.102 243.655 493.102 242.352C493.102 241.049 492.883 239.852 492.443 238.761C492.011 237.67 491.375 236.795 490.534 236.136C489.693 235.477 488.667 235.148 487.455 235.148C486.25 235.148 485.223 235.477 484.375 236.136C483.534 236.795 482.894 237.67 482.455 238.761C482.023 239.852 481.807 241.049 481.807 242.352C481.807 243.655 482.023 244.848 482.455 245.932C482.894 247.015 483.534 247.883 484.375 248.534C485.216 249.186 486.242 249.511 487.455 249.511ZM506.236 257.909C505.046 257.909 504.005 257.754 503.111 257.443C502.217 257.14 501.463 256.723 500.849 256.193C500.236 255.663 499.759 255.068 499.418 254.409L501.077 253.318C501.327 253.758 501.66 254.189 502.077 254.614C502.501 255.038 503.05 255.39 503.724 255.67C504.406 255.951 505.243 256.091 506.236 256.091C507.781 256.091 509.027 255.705 509.974 254.932C510.929 254.159 511.406 252.958 511.406 251.33V247.398H511.224C510.99 247.928 510.652 248.458 510.213 248.989C509.774 249.511 509.198 249.947 508.486 250.295C507.781 250.644 506.906 250.818 505.861 250.818C504.467 250.818 503.228 250.473 502.145 249.784C501.069 249.095 500.221 248.11 499.599 246.83C498.986 245.542 498.679 244.008 498.679 242.227C498.679 240.462 498.978 238.909 499.577 237.568C500.183 236.227 501.027 235.182 502.111 234.432C503.194 233.682 504.455 233.307 505.895 233.307C506.963 233.307 507.849 233.496 508.554 233.875C509.259 234.246 509.823 234.708 510.247 235.261C510.679 235.814 511.016 236.352 511.259 236.875H511.463V233.545H513.44V251.455C513.44 252.932 513.126 254.148 512.497 255.102C511.868 256.057 511.012 256.761 509.929 257.216C508.846 257.678 507.615 257.909 506.236 257.909ZM506.099 248.966C507.221 248.966 508.179 248.697 508.974 248.159C509.77 247.614 510.38 246.833 510.804 245.818C511.228 244.803 511.44 243.595 511.44 242.193C511.44 240.83 511.232 239.621 510.815 238.568C510.399 237.508 509.793 236.674 508.997 236.068C508.209 235.455 507.243 235.148 506.099 235.148C504.933 235.148 503.948 235.462 503.145 236.091C502.342 236.72 501.736 237.568 501.327 238.636C500.918 239.697 500.713 240.883 500.713 242.193C500.713 243.527 500.921 244.705 501.338 245.727C501.755 246.742 502.365 247.538 503.168 248.114C503.971 248.682 504.948 248.966 506.099 248.966ZM525.852 251.364C524.223 251.364 522.814 250.985 521.625 250.227C520.436 249.462 519.515 248.405 518.864 247.057C518.22 245.701 517.898 244.14 517.898 242.375C517.898 240.617 518.22 239.057 518.864 237.693C519.515 236.322 520.413 235.25 521.557 234.477C522.708 233.697 524.038 233.307 525.545 233.307C526.492 233.307 527.405 233.481 528.284 233.83C529.163 234.17 529.951 234.697 530.648 235.409C531.352 236.114 531.909 237.004 532.318 238.08C532.727 239.148 532.932 240.413 532.932 241.875V242.875H519.295V241.091H530.864C530.864 239.97 530.636 238.962 530.182 238.068C529.735 237.167 529.11 236.455 528.307 235.932C527.511 235.409 526.591 235.148 525.545 235.148C524.439 235.148 523.466 235.443 522.625 236.034C521.784 236.625 521.125 237.405 520.648 238.375C520.178 239.345 519.939 240.405 519.932 241.557V242.625C519.932 244.011 520.17 245.223 520.648 246.261C521.133 247.292 521.818 248.091 522.705 248.659C523.591 249.227 524.64 249.511 525.852 249.511C526.678 249.511 527.402 249.383 528.023 249.125C528.652 248.867 529.178 248.523 529.602 248.091C530.034 247.652 530.36 247.17 530.58 246.648L532.5 247.273C532.235 248.008 531.799 248.686 531.193 249.307C530.595 249.928 529.845 250.428 528.943 250.807C528.049 251.178 527.019 251.364 525.852 251.364ZM544.264 233.545V235.307H535.935V233.545H544.264ZM538.537 229.364H540.571V246.443C540.571 247.17 540.696 247.742 540.946 248.159C541.196 248.568 541.522 248.86 541.923 249.034C542.325 249.201 542.753 249.284 543.207 249.284C543.473 249.284 543.7 249.269 543.889 249.239C544.079 249.201 544.245 249.163 544.389 249.125L544.821 250.955C544.624 251.03 544.382 251.098 544.094 251.159C543.806 251.227 543.45 251.261 543.026 251.261C542.283 251.261 541.567 251.098 540.878 250.773C540.196 250.447 539.635 249.962 539.196 249.318C538.757 248.674 538.537 247.875 538.537 246.92V229.364ZM551.256 240.091V251H549.233V227.727H551.256V236.284H551.438C551.847 235.383 552.479 234.663 553.335 234.125C554.199 233.587 555.29 233.318 556.608 233.318C557.79 233.318 558.828 233.561 559.722 234.045C560.616 234.53 561.312 235.246 561.812 236.193C562.312 237.14 562.562 238.307 562.562 239.693V251H560.528V239.818C560.528 238.379 560.127 237.246 559.324 236.42C558.528 235.587 557.453 235.17 556.097 235.17C555.165 235.17 554.335 235.367 553.608 235.761C552.881 236.155 552.305 236.723 551.881 237.466C551.464 238.201 551.256 239.076 551.256 240.091ZM574.946 251.364C573.317 251.364 571.908 250.985 570.719 250.227C569.529 249.462 568.609 248.405 567.957 247.057C567.313 245.701 566.991 244.14 566.991 242.375C566.991 240.617 567.313 239.057 567.957 237.693C568.609 236.322 569.507 235.25 570.651 234.477C571.802 233.697 573.132 233.307 574.639 233.307C575.586 233.307 576.499 233.481 577.378 233.83C578.257 234.17 579.045 234.697 579.741 235.409C580.446 236.114 581.003 237.004 581.412 238.08C581.821 239.148 582.026 240.413 582.026 241.875V242.875H568.389V241.091H579.957C579.957 239.97 579.73 238.962 579.276 238.068C578.829 237.167 578.204 236.455 577.401 235.932C576.605 235.409 575.685 235.148 574.639 235.148C573.533 235.148 572.56 235.443 571.719 236.034C570.878 236.625 570.219 237.405 569.741 238.375C569.272 239.345 569.033 240.405 569.026 241.557V242.625C569.026 244.011 569.264 245.223 569.741 246.261C570.226 247.292 570.912 248.091 571.798 248.659C572.685 249.227 573.734 249.511 574.946 249.511C575.772 249.511 576.495 249.383 577.116 249.125C577.745 248.867 578.272 248.523 578.696 248.091C579.128 247.652 579.454 247.17 579.673 246.648L581.594 247.273C581.329 248.008 580.893 248.686 580.287 249.307C579.688 249.928 578.938 250.428 578.037 250.807C577.143 251.178 576.113 251.364 574.946 251.364ZM586.483 251V233.545H588.449V236.227H588.597C588.945 235.348 589.551 234.64 590.415 234.102C591.286 233.557 592.271 233.284 593.369 233.284C593.536 233.284 593.722 233.288 593.926 233.295C594.131 233.303 594.301 233.311 594.438 233.318V235.375C594.347 235.36 594.188 235.337 593.96 235.307C593.733 235.277 593.487 235.261 593.222 235.261C592.313 235.261 591.502 235.455 590.79 235.841C590.085 236.22 589.528 236.746 589.119 237.42C588.71 238.095 588.506 238.864 588.506 239.727V251H586.483ZM597.503 251.17C597.056 251.17 596.67 251.011 596.344 250.693C596.026 250.367 595.866 249.981 595.866 249.534C595.866 249.08 596.026 248.693 596.344 248.375C596.67 248.057 597.056 247.898 597.503 247.898C597.957 247.898 598.344 248.057 598.662 248.375C598.98 248.693 599.139 249.08 599.139 249.534C599.139 249.83 599.063 250.102 598.912 250.352C598.768 250.602 598.571 250.803 598.321 250.955C598.079 251.098 597.806 251.17 597.503 251.17ZM606.097 251.17C605.65 251.17 605.263 251.011 604.938 250.693C604.619 250.367 604.46 249.981 604.46 249.534C604.46 249.08 604.619 248.693 604.938 248.375C605.263 248.057 605.65 247.898 606.097 247.898C606.551 247.898 606.938 248.057 607.256 248.375C607.574 248.693 607.733 249.08 607.733 249.534C607.733 249.83 607.657 250.102 607.506 250.352C607.362 250.602 607.165 250.803 606.915 250.955C606.672 251.098 606.4 251.17 606.097 251.17ZM614.69 251.17C614.243 251.17 613.857 251.011 613.531 250.693C613.213 250.367 613.054 249.981 613.054 249.534C613.054 249.08 613.213 248.693 613.531 248.375C613.857 248.057 614.243 247.898 614.69 247.898C615.145 247.898 615.531 248.057 615.849 248.375C616.168 248.693 616.327 249.08 616.327 249.534C616.327 249.83 616.251 250.102 616.099 250.352C615.955 250.602 615.759 250.803 615.509 250.955C615.266 251.098 614.993 251.17 614.69 251.17Z" fill="#BBCCFF"/>
</g>
</g>
<defs>
<clipPath id="clip0_1_2">
<rect width="853" height="700" fill="white"/>
</clipPath>
</defs>
</svg>
